<svg width="1363" height="167" viewBox="0 0 1363 167" fill="none" xmlns="http://www.w3.org/2000/svg">
<rect width="1363" height="167" rx="15" fill="#F0F0F0"/>
<path d="M0 15C0 6.71573 6.71573 0 15 0H37V167H15C6.71573 167 0 160.284 0 152V15Z" fill="#424241"/>
<path d="M100.906 54.9219L93.3945 52.2383V49.0859L103.602 53.375V55.6367L100.906 54.9219ZM93.3945 57.1719L100.918 54.4297L103.602 53.7852V56.0352L93.3945 60.3242V57.1719ZM120.781 57.5352C120.781 57.2305 120.734 56.957 120.641 56.7148C120.555 56.4648 120.391 56.2383 120.148 56.0352C119.906 55.8242 119.566 55.6172 119.129 55.4141C118.691 55.2109 118.125 55 117.43 54.7812C116.656 54.5312 115.922 54.25 115.227 53.9375C114.539 53.625 113.93 53.2617 113.398 52.8477C112.875 52.4258 112.461 51.9375 112.156 51.3828C111.859 50.8281 111.711 50.1836 111.711 49.4492C111.711 48.7383 111.867 48.0938 112.18 47.5156C112.492 46.9297 112.93 46.4297 113.492 46.0156C114.055 45.5938 114.719 45.2695 115.484 45.043C116.258 44.8164 117.105 44.7031 118.027 44.7031C119.285 44.7031 120.383 44.9297 121.32 45.3828C122.258 45.8359 122.984 46.457 123.5 47.2461C124.023 48.0352 124.285 48.9375 124.285 49.9531H120.793C120.793 49.4531 120.688 49.0156 120.477 48.6406C120.273 48.2578 119.961 47.957 119.539 47.7383C119.125 47.5195 118.602 47.4102 117.969 47.4102C117.359 47.4102 116.852 47.5039 116.445 47.6914C116.039 47.8711 115.734 48.1172 115.531 48.4297C115.328 48.7344 115.227 49.0781 115.227 49.4609C115.227 49.75 115.297 50.0117 115.438 50.2461C115.586 50.4805 115.805 50.6992 116.094 50.9023C116.383 51.1055 116.738 51.2969 117.16 51.4766C117.582 51.6562 118.07 51.832 118.625 52.0039C119.555 52.2852 120.371 52.6016 121.074 52.9531C121.785 53.3047 122.379 53.6992 122.855 54.1367C123.332 54.5742 123.691 55.0703 123.934 55.625C124.176 56.1797 124.297 56.8086 124.297 57.5117C124.297 58.2539 124.152 58.918 123.863 59.5039C123.574 60.0898 123.156 60.5859 122.609 60.9922C122.062 61.3984 121.41 61.707 120.652 61.918C119.895 62.1289 119.047 62.2344 118.109 62.2344C117.266 62.2344 116.434 62.125 115.613 61.9062C114.793 61.6797 114.047 61.3398 113.375 60.8867C112.711 60.4336 112.18 59.8555 111.781 59.1523C111.383 58.4492 111.184 57.6172 111.184 56.6562H114.711C114.711 57.1875 114.793 57.6367 114.957 58.0039C115.121 58.3711 115.352 58.668 115.648 58.8945C115.953 59.1211 116.312 59.2852 116.727 59.3867C117.148 59.4883 117.609 59.5391 118.109 59.5391C118.719 59.5391 119.219 59.4531 119.609 59.2812C120.008 59.1094 120.301 58.8711 120.488 58.5664C120.684 58.2617 120.781 57.918 120.781 57.5352ZM133.977 58.9648V49.3203H137.352V62H134.176L133.977 58.9648ZM134.352 56.3633L135.348 56.3398C135.348 57.1836 135.25 57.9688 135.055 58.6953C134.859 59.4141 134.566 60.0391 134.176 60.5703C133.785 61.0938 133.293 61.5039 132.699 61.8008C132.105 62.0898 131.406 62.2344 130.602 62.2344C129.984 62.2344 129.414 62.1484 128.891 61.9766C128.375 61.7969 127.93 61.5195 127.555 61.1445C127.188 60.7617 126.898 60.2734 126.688 59.6797C126.484 59.0781 126.383 58.3555 126.383 57.5117V49.3203H129.758V57.5352C129.758 57.9102 129.801 58.2266 129.887 58.4844C129.98 58.7422 130.109 58.9531 130.273 59.1172C130.438 59.2812 130.629 59.3984 130.848 59.4688C131.074 59.5391 131.324 59.5742 131.598 59.5742C132.293 59.5742 132.84 59.4336 133.238 59.1523C133.645 58.8711 133.93 58.4883 134.094 58.0039C134.266 57.5117 134.352 56.9648 134.352 56.3633ZM143.305 51.7578V66.875H139.93V49.3203H143.059L143.305 51.7578ZM151.332 55.5195V55.7656C151.332 56.6875 151.223 57.543 151.004 58.332C150.793 59.1211 150.48 59.8086 150.066 60.3945C149.652 60.9727 149.137 61.4258 148.52 61.7539C147.91 62.0742 147.207 62.2344 146.41 62.2344C145.637 62.2344 144.965 62.0781 144.395 61.7656C143.824 61.4531 143.344 61.0156 142.953 60.4531C142.57 59.8828 142.262 59.2227 142.027 58.4727C141.793 57.7227 141.613 56.918 141.488 56.0586V55.4141C141.613 54.4922 141.793 53.6484 142.027 52.8828C142.262 52.1094 142.57 51.4414 142.953 50.8789C143.344 50.3086 143.82 49.8672 144.383 49.5547C144.953 49.2422 145.621 49.0859 146.387 49.0859C147.191 49.0859 147.898 49.2383 148.508 49.543C149.125 49.8477 149.641 50.2852 150.055 50.8555C150.477 51.4258 150.793 52.1055 151.004 52.8945C151.223 53.6836 151.332 54.5586 151.332 55.5195ZM147.945 55.7656V55.5195C147.945 54.9805 147.898 54.4844 147.805 54.0312C147.719 53.5703 147.578 53.168 147.383 52.8242C147.195 52.4805 146.945 52.2148 146.633 52.0273C146.328 51.832 145.957 51.7344 145.52 51.7344C145.059 51.7344 144.664 51.8086 144.336 51.957C144.016 52.1055 143.754 52.3203 143.551 52.6016C143.348 52.8828 143.195 53.2188 143.094 53.6094C142.992 54 142.93 54.4414 142.906 54.9336V56.5625C142.945 57.1406 143.055 57.6602 143.234 58.1211C143.414 58.5742 143.691 58.9336 144.066 59.1992C144.441 59.4648 144.934 59.5977 145.543 59.5977C145.988 59.5977 146.363 59.5 146.668 59.3047C146.973 59.1016 147.219 58.8242 147.406 58.4727C147.602 58.1211 147.738 57.7148 147.816 57.2539C147.902 56.793 147.945 56.2969 147.945 55.7656ZM156.805 51.7578V66.875H153.43V49.3203H156.559L156.805 51.7578ZM164.832 55.5195V55.7656C164.832 56.6875 164.723 57.543 164.504 58.332C164.293 59.1211 163.98 59.8086 163.566 60.3945C163.152 60.9727 162.637 61.4258 162.02 61.7539C161.41 62.0742 160.707 62.2344 159.91 62.2344C159.137 62.2344 158.465 62.0781 157.895 61.7656C157.324 61.4531 156.844 61.0156 156.453 60.4531C156.07 59.8828 155.762 59.2227 155.527 58.4727C155.293 57.7227 155.113 56.918 154.988 56.0586V55.4141C155.113 54.4922 155.293 53.6484 155.527 52.8828C155.762 52.1094 156.07 51.4414 156.453 50.8789C156.844 50.3086 157.32 49.8672 157.883 49.5547C158.453 49.2422 159.121 49.0859 159.887 49.0859C160.691 49.0859 161.398 49.2383 162.008 49.543C162.625 49.8477 163.141 50.2852 163.555 50.8555C163.977 51.4258 164.293 52.1055 164.504 52.8945C164.723 53.6836 164.832 54.5586 164.832 55.5195ZM161.445 55.7656V55.5195C161.445 54.9805 161.398 54.4844 161.305 54.0312C161.219 53.5703 161.078 53.168 160.883 52.8242C160.695 52.4805 160.445 52.2148 160.133 52.0273C159.828 51.832 159.457 51.7344 159.02 51.7344C158.559 51.7344 158.164 51.8086 157.836 51.957C157.516 52.1055 157.254 52.3203 157.051 52.6016C156.848 52.8828 156.695 53.2188 156.594 53.6094C156.492 54 156.43 54.4414 156.406 54.9336V56.5625C156.445 57.1406 156.555 57.6602 156.734 58.1211C156.914 58.5742 157.191 58.9336 157.566 59.1992C157.941 59.4648 158.434 59.5977 159.043 59.5977C159.488 59.5977 159.863 59.5 160.168 59.3047C160.473 59.1016 160.719 58.8242 160.906 58.4727C161.102 58.1211 161.238 57.7148 161.316 57.2539C161.402 56.793 161.445 56.2969 161.445 55.7656ZM166.391 55.7891V55.543C166.391 54.6133 166.523 53.7578 166.789 52.9766C167.055 52.1875 167.441 51.5039 167.949 50.9258C168.457 50.3477 169.082 49.8984 169.824 49.5781C170.566 49.25 171.418 49.0859 172.379 49.0859C173.34 49.0859 174.195 49.25 174.945 49.5781C175.695 49.8984 176.324 50.3477 176.832 50.9258C177.348 51.5039 177.738 52.1875 178.004 52.9766C178.27 53.7578 178.402 54.6133 178.402 55.543V55.7891C178.402 56.7109 178.27 57.5664 178.004 58.3555C177.738 59.1367 177.348 59.8203 176.832 60.4062C176.324 60.9844 175.699 61.4336 174.957 61.7539C174.215 62.0742 173.363 62.2344 172.402 62.2344C171.441 62.2344 170.586 62.0742 169.836 61.7539C169.094 61.4336 168.465 60.9844 167.949 60.4062C167.441 59.8203 167.055 59.1367 166.789 58.3555C166.523 57.5664 166.391 56.7109 166.391 55.7891ZM169.766 55.543V55.7891C169.766 56.3203 169.812 56.8164 169.906 57.2773C170 57.7383 170.148 58.1445 170.352 58.4961C170.562 58.8398 170.836 59.1094 171.172 59.3047C171.508 59.5 171.918 59.5977 172.402 59.5977C172.871 59.5977 173.273 59.5 173.609 59.3047C173.945 59.1094 174.215 58.8398 174.418 58.4961C174.621 58.1445 174.77 57.7383 174.863 57.2773C174.965 56.8164 175.016 56.3203 175.016 55.7891V55.543C175.016 55.0273 174.965 54.543 174.863 54.0898C174.77 53.6289 174.617 53.2227 174.406 52.8711C174.203 52.5117 173.934 52.2305 173.598 52.0273C173.262 51.8242 172.855 51.7227 172.379 51.7227C171.902 51.7227 171.496 51.8242 171.16 52.0273C170.832 52.2305 170.562 52.5117 170.352 52.8711C170.148 53.2227 170 53.6289 169.906 54.0898C169.812 54.543 169.766 55.0273 169.766 55.543ZM183.852 52.0859V62H180.477V49.3203H183.652L183.852 52.0859ZM187.672 49.2383L187.613 52.3672C187.449 52.3438 187.25 52.3242 187.016 52.3086C186.789 52.2852 186.582 52.2734 186.395 52.2734C185.918 52.2734 185.504 52.3359 185.152 52.4609C184.809 52.5781 184.52 52.7539 184.285 52.9883C184.059 53.2227 183.887 53.5078 183.77 53.8438C183.66 54.1797 183.598 54.5625 183.582 54.9922L182.902 54.7812C182.902 53.9609 182.984 53.207 183.148 52.5195C183.312 51.8242 183.551 51.2188 183.863 50.7031C184.184 50.1875 184.574 49.7891 185.035 49.5078C185.496 49.2266 186.023 49.0859 186.617 49.0859C186.805 49.0859 186.996 49.1016 187.191 49.1328C187.387 49.1562 187.547 49.1914 187.672 49.2383ZM196.062 49.3203V51.7109H188.68V49.3203H196.062ZM190.508 46.1914H193.883V58.1797C193.883 58.5469 193.93 58.8281 194.023 59.0234C194.125 59.2188 194.273 59.3555 194.469 59.4336C194.664 59.5039 194.91 59.5391 195.207 59.5391C195.418 59.5391 195.605 59.5312 195.77 59.5156C195.941 59.4922 196.086 59.4688 196.203 59.4453L196.215 61.9297C195.926 62.0234 195.613 62.0977 195.277 62.1523C194.941 62.207 194.57 62.2344 194.164 62.2344C193.422 62.2344 192.773 62.1133 192.219 61.8711C191.672 61.6211 191.25 61.2227 190.953 60.6758C190.656 60.1289 190.508 59.4102 190.508 58.5195V46.1914Z" fill="#888888"/>
<path d="M101.822 115.1L108.194 86.0078H111.995L114.061 88.4907L107.271 118H103.074L101.822 115.1ZM100.13 86.0078L105.513 115.319L104.129 118H99.2729L92.4834 86.0078H100.13ZM117.554 115.166L122.894 86.0078H130.518L123.729 118H118.895L117.554 115.166ZM114.742 86.0078L121.268 115.275L119.949 118H115.752L108.809 88.4468L110.962 86.0078H114.742ZM141.021 94.2256V118H133.594V94.2256H141.021ZM133.155 88.0952C133.155 87.0405 133.536 86.1763 134.297 85.5024C135.059 84.8286 136.048 84.4917 137.264 84.4917C138.479 84.4917 139.468 84.8286 140.23 85.5024C140.992 86.1763 141.373 87.0405 141.373 88.0952C141.373 89.1499 140.992 90.0142 140.23 90.688C139.468 91.3618 138.479 91.6987 137.264 91.6987C136.048 91.6987 135.059 91.3618 134.297 90.688C133.536 90.0142 133.155 89.1499 133.155 88.0952ZM153.062 100.114V118H145.657V94.2256H152.579L153.062 100.114ZM160.093 94.0498L159.961 100.927C159.668 100.898 159.273 100.861 158.775 100.817C158.277 100.773 157.859 100.751 157.522 100.751C156.658 100.751 155.911 100.854 155.281 101.059C154.666 101.25 154.153 101.542 153.743 101.938C153.348 102.319 153.055 102.802 152.864 103.388C152.688 103.974 152.608 104.655 152.623 105.432L151.282 104.553C151.282 102.956 151.436 101.506 151.744 100.202C152.066 98.8838 152.52 97.7485 153.106 96.7964C153.692 95.8296 154.402 95.0898 155.237 94.5771C156.072 94.0498 157.01 93.7861 158.05 93.7861C158.416 93.7861 158.775 93.8081 159.126 93.8521C159.493 93.896 159.815 93.9619 160.093 94.0498ZM173.716 118.439C171.783 118.439 170.054 118.139 168.531 117.539C167.007 116.923 165.718 116.081 164.664 115.012C163.624 113.942 162.825 112.712 162.269 111.32C161.727 109.929 161.456 108.457 161.456 106.904V106.069C161.456 104.326 161.697 102.714 162.181 101.235C162.664 99.7407 163.382 98.437 164.334 97.3237C165.286 96.2104 166.48 95.3462 167.916 94.731C169.351 94.1011 171.021 93.7861 172.925 93.7861C174.61 93.7861 176.119 94.0571 177.452 94.5991C178.785 95.1411 179.913 95.9175 180.835 96.9282C181.773 97.939 182.483 99.1621 182.967 100.598C183.465 102.033 183.714 103.645 183.714 105.432V108.442H164.29V103.806H176.485V103.234C176.5 102.443 176.36 101.77 176.067 101.213C175.789 100.656 175.379 100.231 174.837 99.9385C174.295 99.6455 173.636 99.499 172.859 99.499C172.054 99.499 171.387 99.6748 170.86 100.026C170.347 100.378 169.944 100.861 169.651 101.477C169.373 102.077 169.175 102.773 169.058 103.564C168.941 104.355 168.882 105.19 168.882 106.069V106.904C168.882 107.783 169 108.581 169.234 109.299C169.483 110.017 169.834 110.632 170.289 111.145C170.757 111.643 171.314 112.031 171.958 112.309C172.618 112.587 173.365 112.727 174.2 112.727C175.21 112.727 176.207 112.536 177.188 112.155C178.169 111.774 179.012 111.145 179.715 110.266L183.077 114.265C182.593 114.953 181.905 115.62 181.011 116.264C180.132 116.909 179.078 117.436 177.847 117.846C176.617 118.242 175.24 118.439 173.716 118.439ZM195.799 118H188.35V92.292C188.35 90.4463 188.724 88.8936 189.471 87.6338C190.218 86.374 191.272 85.4219 192.635 84.7773C193.997 84.1182 195.608 83.7886 197.469 83.7886C198.113 83.7886 198.721 83.8325 199.292 83.9204C199.864 84.0083 200.42 84.1182 200.962 84.25L200.984 89.6992C200.721 89.626 200.45 89.5747 200.171 89.5454C199.893 89.5161 199.549 89.5015 199.139 89.5015C198.421 89.5015 197.813 89.6113 197.315 89.8311C196.817 90.0361 196.436 90.3511 196.172 90.7759C195.923 91.186 195.799 91.6914 195.799 92.292V118ZM200.413 94.2256V99.3672H184.922V94.2256H200.413ZM210.542 100.114V118H203.138V94.2256H210.059L210.542 100.114ZM217.574 94.0498L217.442 100.927C217.149 100.898 216.753 100.861 216.255 100.817C215.757 100.773 215.34 100.751 215.003 100.751C214.139 100.751 213.392 100.854 212.762 101.059C212.146 101.25 211.634 101.542 211.224 101.938C210.828 102.319 210.535 102.802 210.345 103.388C210.169 103.974 210.088 104.655 210.103 105.432L208.763 104.553C208.763 102.956 208.917 101.506 209.224 100.202C209.546 98.8838 210 97.7485 210.586 96.7964C211.172 95.8296 211.883 95.0898 212.718 94.5771C213.553 94.0498 214.49 93.7861 215.53 93.7861C215.896 93.7861 216.255 93.8081 216.607 93.8521C216.973 93.896 217.295 93.9619 217.574 94.0498ZM231.812 112.023V102.224C231.812 101.55 231.717 100.971 231.526 100.488C231.336 100.004 231.036 99.6309 230.625 99.3672C230.215 99.0889 229.666 98.9497 228.978 98.9497C228.421 98.9497 227.945 99.0449 227.549 99.2354C227.154 99.4258 226.854 99.7114 226.648 100.092C226.443 100.473 226.341 100.957 226.341 101.542H218.936C218.936 100.444 219.178 99.4258 219.661 98.4883C220.159 97.5361 220.862 96.7085 221.771 96.0054C222.693 95.3022 223.792 94.7603 225.066 94.3794C226.355 93.9839 227.791 93.7861 229.373 93.7861C231.263 93.7861 232.947 94.1011 234.427 94.731C235.921 95.3608 237.1 96.3057 237.964 97.5654C238.829 98.8105 239.261 100.378 239.261 102.268V112.001C239.261 113.554 239.349 114.733 239.524 115.539C239.7 116.33 239.949 117.026 240.271 117.626V118H232.845C232.493 117.268 232.229 116.374 232.054 115.319C231.893 114.25 231.812 113.151 231.812 112.023ZM232.713 103.476L232.757 107.431H229.483C228.794 107.431 228.208 107.526 227.725 107.717C227.256 107.907 226.875 108.171 226.583 108.508C226.304 108.83 226.099 109.196 225.967 109.606C225.85 110.017 225.792 110.449 225.792 110.903C225.792 111.342 225.894 111.738 226.099 112.089C226.319 112.426 226.612 112.69 226.978 112.88C227.344 113.071 227.754 113.166 228.208 113.166C229.029 113.166 229.725 113.012 230.296 112.705C230.882 112.382 231.329 111.994 231.636 111.54C231.944 111.086 232.098 110.661 232.098 110.266L233.724 113.298C233.431 113.884 233.094 114.477 232.713 115.078C232.347 115.678 231.885 116.235 231.329 116.748C230.787 117.246 230.12 117.656 229.329 117.978C228.538 118.286 227.579 118.439 226.451 118.439C224.986 118.439 223.638 118.139 222.408 117.539C221.192 116.938 220.218 116.103 219.485 115.034C218.753 113.95 218.387 112.705 218.387 111.298C218.387 110.068 218.606 108.969 219.046 108.002C219.5 107.036 220.181 106.215 221.089 105.542C221.998 104.868 223.155 104.355 224.561 104.003C225.967 103.652 227.623 103.476 229.527 103.476H232.713ZM250.84 99.2573V118H243.436V94.2256H250.379L250.84 99.2573ZM249.939 105.3L248.248 105.344C248.248 103.674 248.445 102.136 248.841 100.729C249.236 99.3232 249.822 98.1001 250.599 97.0601C251.375 96.02 252.327 95.2144 253.455 94.6431C254.598 94.0718 255.916 93.7861 257.41 93.7861C258.45 93.7861 259.395 93.9473 260.245 94.2695C261.094 94.5771 261.827 95.0679 262.442 95.7417C263.057 96.4009 263.526 97.2651 263.848 98.3345C264.185 99.3892 264.354 100.656 264.354 102.136V118H256.949V103.081C256.949 102.07 256.832 101.308 256.597 100.795C256.377 100.283 256.055 99.9385 255.63 99.7627C255.206 99.5869 254.686 99.499 254.07 99.499C253.426 99.499 252.847 99.6455 252.334 99.9385C251.822 100.231 251.382 100.642 251.016 101.169C250.665 101.682 250.394 102.29 250.203 102.993C250.027 103.696 249.939 104.465 249.939 105.3ZM263.519 105.3L261.453 105.344C261.453 103.674 261.636 102.136 262.002 100.729C262.383 99.3232 262.947 98.1001 263.694 97.0601C264.456 96.02 265.401 95.2144 266.529 94.6431C267.657 94.0718 268.968 93.7861 270.462 93.7861C271.546 93.7861 272.542 93.9473 273.45 94.2695C274.358 94.5918 275.142 95.1118 275.801 95.8296C276.46 96.5474 276.973 97.4995 277.339 98.686C277.706 99.8579 277.889 101.308 277.889 103.037V118H270.462V103.037C270.462 102.055 270.345 101.315 270.11 100.817C269.891 100.305 269.568 99.9604 269.144 99.7847C268.719 99.5942 268.213 99.499 267.627 99.499C266.924 99.499 266.316 99.6455 265.804 99.9385C265.291 100.231 264.859 100.642 264.507 101.169C264.17 101.682 263.921 102.29 263.76 102.993C263.599 103.696 263.519 104.465 263.519 105.3ZM293.643 118.439C291.709 118.439 289.981 118.139 288.458 117.539C286.934 116.923 285.645 116.081 284.59 115.012C283.55 113.942 282.752 112.712 282.195 111.32C281.653 109.929 281.382 108.457 281.382 106.904V106.069C281.382 104.326 281.624 102.714 282.107 101.235C282.591 99.7407 283.309 98.437 284.261 97.3237C285.213 96.2104 286.407 95.3462 287.842 94.731C289.278 94.1011 290.948 93.7861 292.852 93.7861C294.537 93.7861 296.045 94.0571 297.378 94.5991C298.711 95.1411 299.839 95.9175 300.762 96.9282C301.7 97.939 302.41 99.1621 302.894 100.598C303.392 102.033 303.641 103.645 303.641 105.432V108.442H284.217V103.806H296.412V103.234C296.426 102.443 296.287 101.77 295.994 101.213C295.716 100.656 295.306 100.231 294.764 99.9385C294.222 99.6455 293.562 99.499 292.786 99.499C291.98 99.499 291.314 99.6748 290.787 100.026C290.274 100.378 289.871 100.861 289.578 101.477C289.3 102.077 289.102 102.773 288.985 103.564C288.868 104.355 288.809 105.19 288.809 106.069V106.904C288.809 107.783 288.926 108.581 289.161 109.299C289.41 110.017 289.761 110.632 290.215 111.145C290.684 111.643 291.241 112.031 291.885 112.309C292.544 112.587 293.292 112.727 294.126 112.727C295.137 112.727 296.133 112.536 297.115 112.155C298.096 111.774 298.938 111.145 299.642 110.266L303.003 114.265C302.52 114.953 301.832 115.62 300.938 116.264C300.059 116.909 299.004 117.436 297.774 117.846C296.543 118.242 295.167 118.439 293.643 118.439ZM319.109 111.32C319.109 110.91 318.97 110.559 318.692 110.266C318.428 109.958 317.959 109.68 317.286 109.431C316.612 109.167 315.667 108.903 314.451 108.64C313.294 108.391 312.203 108.061 311.177 107.651C310.167 107.241 309.28 106.743 308.519 106.157C307.757 105.571 307.156 104.875 306.717 104.069C306.292 103.264 306.08 102.341 306.08 101.301C306.08 100.29 306.292 99.3379 306.717 98.4443C307.156 97.5361 307.793 96.7378 308.628 96.0493C309.478 95.3462 310.511 94.7969 311.727 94.4014C312.942 93.9912 314.327 93.7861 315.879 93.7861C318.018 93.7861 319.864 94.1157 321.417 94.7749C322.969 95.4194 324.163 96.3276 324.998 97.4995C325.848 98.6567 326.272 99.9971 326.272 101.521H318.868C318.868 100.92 318.765 100.407 318.56 99.9824C318.37 99.5576 318.055 99.2354 317.615 99.0156C317.176 98.7812 316.59 98.6641 315.857 98.6641C315.345 98.6641 314.876 98.7593 314.451 98.9497C314.041 99.1401 313.711 99.4038 313.462 99.7407C313.213 100.078 313.089 100.473 313.089 100.927C313.089 101.25 313.162 101.542 313.309 101.806C313.47 102.055 313.711 102.29 314.034 102.509C314.356 102.714 314.766 102.905 315.264 103.081C315.762 103.242 316.363 103.388 317.066 103.52C318.663 103.813 320.157 104.23 321.548 104.772C322.94 105.314 324.068 106.083 324.932 107.08C325.811 108.076 326.25 109.416 326.25 111.101C326.25 112.155 326.009 113.129 325.525 114.023C325.042 114.902 324.346 115.678 323.438 116.352C322.53 117.011 321.438 117.524 320.164 117.89C318.89 118.256 317.454 118.439 315.857 118.439C313.587 118.439 311.668 118.037 310.101 117.231C308.533 116.411 307.347 115.385 306.541 114.155C305.75 112.91 305.354 111.65 305.354 110.375H312.254C312.283 111.108 312.459 111.708 312.781 112.177C313.118 112.646 313.565 112.99 314.122 113.21C314.678 113.43 315.323 113.54 316.055 113.54C316.729 113.54 317.286 113.444 317.725 113.254C318.179 113.063 318.523 112.807 318.758 112.485C318.992 112.148 319.109 111.76 319.109 111.32Z" fill="#424241"/>
<path d="M1363 15C1363 6.71573 1356.28 0 1348 0H1134V167H1348C1356.28 167 1363 160.284 1363 152V15Z" fill="#3C429E"/>
<path fill-rule="evenodd" clip-rule="evenodd" d="M1203 49C1203 47.8954 1203.9 47 1205 47H1292.5C1293.6 47 1294.5 47.8954 1294.5 49V118.996C1294.5 120.101 1293.6 120.996 1292.5 120.996H1205C1203.9 120.996 1203 120.101 1203 118.996V49ZM1207 51V55.4945H1290.5V51H1207ZM1290.5 59.4945H1235.44V116.996H1290.5V59.4945ZM1231.44 116.996V59.4945H1207V116.996H1231.44Z" fill="white"/>
<path fill-rule="evenodd" clip-rule="evenodd" d="M1209.97 64.8004C1209.97 63.6958 1210.87 62.8004 1211.97 62.8004H1225.97C1227.08 62.8004 1227.97 63.6958 1227.97 64.8004V84.1956C1227.97 85.3001 1227.08 86.1956 1225.97 86.1956H1211.97C1210.87 86.1956 1209.97 85.3001 1209.97 84.1956V64.8004ZM1213.97 66.8004V82.1956H1223.97V66.8004H1213.97ZM1239.58 65.6964C1239.58 64.5918 1240.47 63.6964 1241.58 63.6964H1284.5C1285.61 63.6964 1286.5 64.5918 1286.5 65.6964V111.905C1286.5 113.01 1285.61 113.905 1284.5 113.905H1241.58C1240.47 113.905 1239.58 113.01 1239.58 111.905V65.6964ZM1243.58 67.6964V109.905H1282.5V67.6964H1243.58ZM1209.81 95.9363C1209.81 94.8317 1210.71 93.9363 1211.81 93.9363H1220.73C1221.84 93.9363 1222.73 94.8317 1222.73 95.9363C1222.73 97.0409 1221.84 97.9363 1220.73 97.9363H1211.81C1210.71 97.9363 1209.81 97.0409 1209.81 95.9363ZM1209.81 102.936C1209.81 101.832 1210.71 100.936 1211.81 100.936H1226.35C1227.46 100.936 1228.35 101.832 1228.35 102.936C1228.35 104.041 1227.46 104.936 1226.35 104.936H1211.81C1210.71 104.936 1209.81 104.041 1209.81 102.936ZM1209.81 109.936C1209.81 108.832 1210.71 107.936 1211.81 107.936H1220.73C1221.84 107.936 1222.73 108.832 1222.73 109.936C1222.73 111.041 1221.84 111.936 1220.73 111.936H1211.81C1210.71 111.936 1209.81 111.041 1209.81 109.936Z" fill="white"/>
</svg>
