<svg width="1363" height="301" viewBox="0 0 1363 301" fill="none" xmlns="http://www.w3.org/2000/svg">
<rect width="1363" height="301" rx="15" fill="#F0F0F0"/>
<path d="M0 15C0 6.71573 6.71573 0 15 0H37V301H15C6.71573 301 0 294.284 0 286V15Z" fill="#3C429E"/>
<path d="M115.123 133.607C115.123 132.998 115.033 132.452 114.854 131.969C114.675 131.467 114.344 131.002 113.86 130.572C113.377 130.143 112.679 129.713 111.766 129.283C110.87 128.836 109.689 128.37 108.221 127.887C106.502 127.314 104.846 126.669 103.252 125.953C101.659 125.219 100.236 124.369 98.9824 123.402C97.7292 122.417 96.7355 121.271 96.0015 119.964C95.2674 118.639 94.9004 117.1 94.9004 115.345C94.9004 113.662 95.2764 112.149 96.0283 110.807C96.7803 109.446 97.8276 108.291 99.1704 107.342C100.531 106.375 102.125 105.641 103.951 105.14C105.777 104.621 107.773 104.361 109.939 104.361C112.804 104.361 115.328 104.863 117.513 105.865C119.715 106.85 121.434 108.255 122.669 110.082C123.922 111.89 124.549 114.029 124.549 116.5H115.176C115.176 115.515 114.97 114.647 114.559 113.895C114.165 113.143 113.565 112.552 112.759 112.123C111.954 111.693 110.942 111.478 109.725 111.478C108.543 111.478 107.549 111.657 106.744 112.015C105.938 112.373 105.329 112.857 104.917 113.465C104.506 114.056 104.3 114.71 104.3 115.426C104.3 116.017 104.461 116.554 104.783 117.037C105.123 117.503 105.598 117.941 106.207 118.353C106.833 118.765 107.585 119.159 108.462 119.535C109.358 119.911 110.36 120.278 111.47 120.636C113.547 121.298 115.391 122.041 117.002 122.865C118.632 123.67 120.001 124.592 121.111 125.631C122.239 126.651 123.09 127.815 123.663 129.122C124.253 130.429 124.549 131.906 124.549 133.553C124.549 135.308 124.209 136.865 123.528 138.226C122.848 139.587 121.872 140.742 120.601 141.69C119.33 142.621 117.808 143.329 116.036 143.812C114.263 144.295 112.285 144.537 110.101 144.537C108.095 144.537 106.117 144.286 104.166 143.785C102.232 143.266 100.477 142.478 98.9019 141.422C97.3263 140.348 96.0641 138.978 95.1152 137.313C94.1842 135.63 93.7188 133.634 93.7188 131.324H103.172C103.172 132.47 103.324 133.437 103.628 134.225C103.933 135.012 104.38 135.648 104.971 136.131C105.562 136.597 106.287 136.937 107.146 137.152C108.006 137.349 108.991 137.447 110.101 137.447C111.3 137.447 112.267 137.277 113.001 136.937C113.735 136.579 114.272 136.113 114.612 135.541C114.952 134.95 115.123 134.305 115.123 133.607ZM145.953 136.937V114.942H155.03V144H146.543L145.953 136.937ZM146.812 131.029L149.175 130.975C149.175 132.927 148.943 134.735 148.477 136.4C148.012 138.047 147.322 139.479 146.409 140.697C145.514 141.914 144.404 142.863 143.079 143.543C141.772 144.206 140.259 144.537 138.541 144.537C137.108 144.537 135.792 144.34 134.593 143.946C133.411 143.535 132.391 142.899 131.531 142.04C130.672 141.162 130 140.043 129.517 138.683C129.052 137.304 128.819 135.657 128.819 133.741V114.942H137.869V133.795C137.869 134.439 137.95 134.994 138.111 135.46C138.272 135.925 138.505 136.319 138.809 136.642C139.113 136.946 139.489 137.179 139.937 137.34C140.403 137.483 140.931 137.555 141.521 137.555C142.882 137.555 143.947 137.268 144.717 136.695C145.487 136.122 146.024 135.344 146.329 134.359C146.651 133.374 146.812 132.264 146.812 131.029ZM169.156 120.528V155.172H160.105V114.942H168.538L169.156 120.528ZM186.988 129.122V129.686C186.988 131.799 186.746 133.759 186.263 135.567C185.779 137.376 185.063 138.951 184.114 140.294C183.165 141.637 181.984 142.684 180.569 143.436C179.173 144.17 177.553 144.537 175.708 144.537C173.972 144.537 172.477 144.152 171.224 143.382C169.97 142.612 168.923 141.547 168.082 140.187C167.24 138.826 166.56 137.268 166.041 135.514C165.521 133.759 165.11 131.906 164.805 129.955V129.229C165.11 127.135 165.521 125.192 166.041 123.402C166.56 121.594 167.24 120.018 168.082 118.675C168.923 117.333 169.961 116.285 171.197 115.533C172.45 114.781 173.945 114.405 175.682 114.405C177.526 114.405 179.146 114.754 180.542 115.453C181.957 116.151 183.139 117.153 184.087 118.46C185.054 119.75 185.779 121.298 186.263 123.106C186.746 124.915 186.988 126.92 186.988 129.122ZM177.938 129.686V129.122C177.938 127.994 177.857 126.965 177.696 126.034C177.535 125.085 177.275 124.261 176.917 123.563C176.577 122.865 176.12 122.328 175.547 121.952C174.974 121.576 174.267 121.388 173.426 121.388C172.459 121.388 171.644 121.54 170.982 121.844C170.337 122.131 169.818 122.578 169.424 123.187C169.048 123.778 168.78 124.521 168.619 125.416C168.475 126.293 168.413 127.323 168.431 128.504V130.707C168.395 132.067 168.529 133.267 168.833 134.305C169.138 135.326 169.666 136.122 170.418 136.695C171.17 137.268 172.19 137.555 173.479 137.555C174.339 137.555 175.055 137.358 175.628 136.964C176.201 136.552 176.657 135.988 176.998 135.272C177.338 134.538 177.579 133.696 177.723 132.748C177.866 131.799 177.938 130.778 177.938 129.686ZM200.147 120.528V155.172H191.097V114.942H199.529L200.147 120.528ZM217.979 129.122V129.686C217.979 131.799 217.737 133.759 217.254 135.567C216.771 137.376 216.054 138.951 215.105 140.294C214.157 141.637 212.975 142.684 211.561 143.436C210.164 144.17 208.544 144.537 206.7 144.537C204.963 144.537 203.468 144.152 202.215 143.382C200.962 142.612 199.914 141.547 199.073 140.187C198.231 138.826 197.551 137.268 197.032 135.514C196.513 133.759 196.101 131.906 195.796 129.955V129.229C196.101 127.135 196.513 125.192 197.032 123.402C197.551 121.594 198.231 120.018 199.073 118.675C199.914 117.333 200.953 116.285 202.188 115.533C203.441 114.781 204.936 114.405 206.673 114.405C208.517 114.405 210.137 114.754 211.534 115.453C212.948 116.151 214.13 117.153 215.079 118.46C216.045 119.75 216.771 121.298 217.254 123.106C217.737 124.915 217.979 126.92 217.979 129.122ZM208.929 129.686V129.122C208.929 127.994 208.848 126.965 208.687 126.034C208.526 125.085 208.266 124.261 207.908 123.563C207.568 122.865 207.111 122.328 206.539 121.952C205.966 121.576 205.258 121.388 204.417 121.388C203.45 121.388 202.636 121.54 201.973 121.844C201.329 122.131 200.809 122.578 200.416 123.187C200.04 123.778 199.771 124.521 199.61 125.416C199.467 126.293 199.404 127.323 199.422 128.504V130.707C199.386 132.067 199.52 133.267 199.825 134.305C200.129 135.326 200.657 136.122 201.409 136.695C202.161 137.268 203.182 137.555 204.471 137.555C205.33 137.555 206.046 137.358 206.619 136.964C207.192 136.552 207.649 135.988 207.989 135.272C208.329 134.538 208.571 133.696 208.714 132.748C208.857 131.799 208.929 130.778 208.929 129.686ZM220.879 129.767V129.203C220.879 127.072 221.184 125.112 221.792 123.321C222.401 121.513 223.296 119.946 224.478 118.622C225.66 117.297 227.119 116.267 228.855 115.533C230.592 114.781 232.597 114.405 234.871 114.405C237.163 114.405 239.177 114.781 240.914 115.533C242.668 116.267 244.136 117.297 245.318 118.622C246.5 119.946 247.395 121.513 248.003 123.321C248.612 125.112 248.917 127.072 248.917 129.203V129.767C248.917 131.879 248.612 133.84 248.003 135.648C247.395 137.438 246.5 139.005 245.318 140.348C244.136 141.673 242.677 142.702 240.94 143.436C239.204 144.17 237.199 144.537 234.925 144.537C232.651 144.537 230.637 144.17 228.882 143.436C227.128 142.702 225.66 141.673 224.478 140.348C223.296 139.005 222.401 137.438 221.792 135.648C221.184 133.84 220.879 131.879 220.879 129.767ZM229.93 129.203V129.767C229.93 130.859 230.01 131.879 230.171 132.828C230.333 133.777 230.601 134.61 230.977 135.326C231.353 136.024 231.863 136.57 232.508 136.964C233.152 137.358 233.958 137.555 234.925 137.555C235.874 137.555 236.661 137.358 237.288 136.964C237.933 136.57 238.443 136.024 238.819 135.326C239.195 134.61 239.463 133.777 239.625 132.828C239.786 131.879 239.866 130.859 239.866 129.767V129.203C239.866 128.146 239.786 127.153 239.625 126.222C239.463 125.273 239.195 124.44 238.819 123.724C238.443 122.99 237.933 122.417 237.288 122.005C236.644 121.594 235.838 121.388 234.871 121.388C233.922 121.388 233.125 121.594 232.481 122.005C231.854 122.417 231.353 122.99 230.977 123.724C230.601 124.44 230.333 125.273 230.171 126.222C230.01 127.153 229.93 128.146 229.93 129.203ZM262.076 122.14V144H253.025V114.942H261.485L262.076 122.14ZM270.669 114.728L270.508 123.133C270.15 123.097 269.667 123.053 269.058 122.999C268.449 122.945 267.939 122.918 267.527 122.918C266.471 122.918 265.558 123.044 264.788 123.294C264.036 123.527 263.41 123.885 262.908 124.369C262.425 124.834 262.067 125.425 261.834 126.141C261.619 126.857 261.521 127.69 261.539 128.639L259.9 127.564C259.9 125.613 260.088 123.84 260.464 122.247C260.858 120.636 261.413 119.248 262.129 118.084C262.846 116.903 263.714 115.999 264.734 115.372C265.755 114.728 266.901 114.405 268.172 114.405C268.619 114.405 269.058 114.432 269.488 114.486C269.935 114.54 270.329 114.62 270.669 114.728ZM290.435 114.942V121.227H272.925V114.942H290.435ZM276.604 107.718H285.655V134.52C285.655 135.29 285.744 135.89 285.923 136.319C286.102 136.731 286.407 137.027 286.836 137.206C287.284 137.367 287.875 137.447 288.609 137.447C289.128 137.447 289.558 137.438 289.898 137.42C290.238 137.385 290.56 137.34 290.865 137.286V143.758C290.095 144.009 289.289 144.197 288.448 144.322C287.606 144.465 286.711 144.537 285.762 144.537C283.829 144.537 282.173 144.233 280.794 143.624C279.433 143.015 278.395 142.057 277.679 140.75C276.963 139.444 276.604 137.743 276.604 135.648V107.718Z" fill="black"/>
<path d="M110.816 65.2515V69.2505H97.8276V65.2515H110.816ZM99.3486 55.1172V80H94.2217V55.1172H99.3486ZM114.473 55.1172V80H109.363V55.1172H114.473ZM128.606 75.8301V67.5928C128.606 67.0003 128.51 66.4933 128.316 66.0718C128.122 65.6388 127.82 65.3027 127.41 65.0635C127.011 64.8242 126.493 64.7046 125.855 64.7046C125.308 64.7046 124.835 64.8014 124.437 64.9951C124.038 65.1774 123.73 65.4451 123.514 65.7983C123.297 66.1401 123.189 66.5446 123.189 67.0117H118.267C118.267 66.2256 118.449 65.4793 118.814 64.7729C119.179 64.0666 119.708 63.4456 120.403 62.9102C121.098 62.3633 121.924 61.936 122.881 61.6284C123.85 61.3208 124.932 61.167 126.128 61.167C127.564 61.167 128.84 61.4062 129.957 61.8848C131.073 62.3633 131.95 63.0811 132.588 64.0381C133.238 64.9951 133.562 66.1914 133.562 67.627V75.5396C133.562 76.5535 133.625 77.3853 133.75 78.0347C133.876 78.6727 134.058 79.231 134.297 79.7095V80H129.324C129.085 79.4987 128.903 78.8721 128.777 78.1201C128.663 77.3568 128.606 76.5934 128.606 75.8301ZM129.256 68.7378L129.29 71.5234H126.539C125.889 71.5234 125.325 71.5975 124.847 71.7456C124.368 71.8937 123.975 72.1045 123.667 72.3779C123.36 72.64 123.132 72.9476 122.984 73.3008C122.847 73.654 122.779 74.0413 122.779 74.4629C122.779 74.8844 122.876 75.2661 123.069 75.6079C123.263 75.9383 123.542 76.2004 123.907 76.394C124.271 76.5763 124.699 76.6675 125.188 76.6675C125.929 76.6675 126.573 76.5194 127.12 76.2231C127.667 75.9269 128.088 75.5623 128.384 75.1294C128.692 74.6965 128.851 74.2863 128.863 73.8989L130.162 75.9839C129.979 76.451 129.729 76.9352 129.41 77.4365C129.102 77.9378 128.709 78.4106 128.23 78.855C127.752 79.2879 127.177 79.6468 126.504 79.9316C125.832 80.2051 125.035 80.3418 124.112 80.3418C122.938 80.3418 121.873 80.1082 120.916 79.6411C119.97 79.1626 119.218 78.5075 118.66 77.6758C118.113 76.8327 117.84 75.8757 117.84 74.8047C117.84 73.8363 118.022 72.9761 118.387 72.2241C118.751 71.4722 119.287 70.8398 119.993 70.3271C120.711 69.8031 121.605 69.41 122.676 69.1479C123.747 68.8745 124.989 68.7378 126.402 68.7378H129.256ZM148.277 75.9668V53.75H153.233V80H148.772L148.277 75.9668ZM136.587 70.9766V70.6177C136.587 69.2049 136.747 67.9232 137.066 66.7725C137.385 65.6104 137.852 64.6134 138.467 63.7817C139.083 62.95 139.84 62.3063 140.74 61.8506C141.64 61.3949 142.666 61.167 143.816 61.167C144.899 61.167 145.844 61.3949 146.653 61.8506C147.474 62.3063 148.169 62.9557 148.738 63.7988C149.319 64.6305 149.786 65.616 150.14 66.7554C150.493 67.8833 150.749 69.1195 150.909 70.4639V71.25C150.749 72.5374 150.493 73.7337 150.14 74.8389C149.786 75.944 149.319 76.9124 148.738 77.7441C148.169 78.5645 147.474 79.2025 146.653 79.6582C145.833 80.1139 144.876 80.3418 143.782 80.3418C142.632 80.3418 141.606 80.1082 140.706 79.6411C139.817 79.174 139.065 78.5189 138.45 77.6758C137.846 76.8327 137.385 75.8415 137.066 74.7021C136.747 73.5628 136.587 72.321 136.587 70.9766ZM141.509 70.6177V70.9766C141.509 71.7399 141.566 72.452 141.68 73.1128C141.806 73.7736 142.005 74.3604 142.278 74.873C142.563 75.3743 142.928 75.7674 143.372 76.0522C143.828 76.3257 144.38 76.4624 145.03 76.4624C145.873 76.4624 146.568 76.2744 147.115 75.8984C147.662 75.5111 148.077 74.9813 148.362 74.3091C148.659 73.6369 148.829 72.8621 148.875 71.9849V69.7461C148.841 69.0283 148.738 68.3846 148.567 67.8149C148.408 67.2339 148.169 66.7383 147.85 66.3281C147.542 65.918 147.155 65.599 146.688 65.3711C146.232 65.1432 145.691 65.0293 145.064 65.0293C144.426 65.0293 143.879 65.1774 143.423 65.4736C142.968 65.7585 142.597 66.1515 142.312 66.6528C142.039 67.1541 141.834 67.7466 141.697 68.4302C141.572 69.1024 141.509 69.8315 141.509 70.6177ZM162.273 61.5088V80H157.334V61.5088H162.273ZM157.027 56.6895C157.027 55.9717 157.278 55.3792 157.779 54.9121C158.28 54.445 158.952 54.2114 159.795 54.2114C160.627 54.2114 161.294 54.445 161.795 54.9121C162.308 55.3792 162.564 55.9717 162.564 56.6895C162.564 57.4072 162.308 57.9997 161.795 58.4668C161.294 58.9339 160.627 59.1675 159.795 59.1675C158.952 59.1675 158.28 58.9339 157.779 58.4668C157.278 57.9997 157.027 57.4072 157.027 56.6895ZM185.481 59.3726L178.714 80H173.262L182.508 55.1172H185.977L185.481 59.3726ZM191.104 80L184.319 59.3726L183.772 55.1172H187.276L196.573 80H191.104ZM190.796 70.7373V74.7534H177.654V70.7373H190.796ZM203.768 53.75V80H198.829V53.75H203.768ZM213.27 55.1172V80H208.143V55.1172H213.27ZM228.172 55.1172L218.311 67.4048L212.62 73.5229L211.697 68.6694L215.542 63.4058L221.883 55.1172H228.172ZM222.344 80L215.013 68.4985L218.807 65.3198L228.411 80H222.344ZM240.066 75.8301V67.5928C240.066 67.0003 239.97 66.4933 239.776 66.0718C239.582 65.6388 239.28 65.3027 238.87 65.0635C238.471 64.8242 237.953 64.7046 237.315 64.7046C236.768 64.7046 236.295 64.8014 235.896 64.9951C235.498 65.1774 235.19 65.4451 234.974 65.7983C234.757 66.1401 234.649 66.5446 234.649 67.0117H229.727C229.727 66.2256 229.909 65.4793 230.274 64.7729C230.639 64.0666 231.168 63.4456 231.863 62.9102C232.558 62.3633 233.384 61.936 234.341 61.6284C235.31 61.3208 236.392 61.167 237.588 61.167C239.024 61.167 240.3 61.4062 241.417 61.8848C242.533 62.3633 243.41 63.0811 244.048 64.0381C244.698 64.9951 245.022 66.1914 245.022 67.627V75.5396C245.022 76.5535 245.085 77.3853 245.21 78.0347C245.336 78.6727 245.518 79.231 245.757 79.7095V80H240.784C240.545 79.4987 240.363 78.8721 240.237 78.1201C240.123 77.3568 240.066 76.5934 240.066 75.8301ZM240.716 68.7378L240.75 71.5234H237.999C237.349 71.5234 236.785 71.5975 236.307 71.7456C235.828 71.8937 235.435 72.1045 235.127 72.3779C234.82 72.64 234.592 72.9476 234.444 73.3008C234.307 73.654 234.239 74.0413 234.239 74.4629C234.239 74.8844 234.336 75.2661 234.529 75.6079C234.723 75.9383 235.002 76.2004 235.367 76.394C235.731 76.5763 236.159 76.6675 236.648 76.6675C237.389 76.6675 238.033 76.5194 238.58 76.2231C239.126 75.9269 239.548 75.5623 239.844 75.1294C240.152 74.6965 240.311 74.2863 240.323 73.8989L241.622 75.9839C241.439 76.451 241.189 76.9352 240.87 77.4365C240.562 77.9378 240.169 78.4106 239.69 78.855C239.212 79.2879 238.637 79.6468 237.964 79.9316C237.292 80.2051 236.495 80.3418 235.572 80.3418C234.398 80.3418 233.333 80.1082 232.376 79.6411C231.43 79.1626 230.678 78.5075 230.12 77.6758C229.573 76.8327 229.3 75.8757 229.3 74.8047C229.3 73.8363 229.482 72.9761 229.847 72.2241C230.211 71.4722 230.747 70.8398 231.453 70.3271C232.171 69.8031 233.065 69.41 234.136 69.1479C235.207 68.8745 236.449 68.7378 237.862 68.7378H240.716ZM253.738 65.3369V80H248.799V61.5088H253.431L253.738 65.3369ZM253.055 70.105H251.688C251.688 68.8175 251.841 67.6326 252.149 66.5503C252.468 65.4565 252.929 64.5109 253.533 63.7134C254.148 62.9045 254.906 62.2778 255.806 61.8335C256.706 61.3892 257.749 61.167 258.934 61.167C259.754 61.167 260.506 61.2923 261.189 61.543C261.873 61.7822 262.46 62.1639 262.95 62.688C263.451 63.2007 263.838 63.8729 264.112 64.7046C264.385 65.5249 264.522 66.5104 264.522 67.6611V80H259.6V68.208C259.6 67.3649 259.486 66.7155 259.258 66.2598C259.03 65.804 258.706 65.485 258.284 65.3027C257.874 65.1204 257.378 65.0293 256.797 65.0293C256.159 65.0293 255.601 65.1603 255.123 65.4224C254.655 65.6844 254.268 66.049 253.96 66.5161C253.653 66.9718 253.425 67.5073 253.277 68.1226C253.129 68.7378 253.055 69.3986 253.055 70.105ZM264.061 69.541L262.3 69.7632C262.3 68.5555 262.448 67.4333 262.745 66.3965C263.052 65.3597 263.502 64.4482 264.095 63.6621C264.699 62.876 265.445 62.2664 266.333 61.8335C267.222 61.3892 268.248 61.167 269.41 61.167C270.298 61.167 271.107 61.298 271.836 61.5601C272.566 61.8107 273.187 62.2152 273.699 62.7734C274.223 63.3203 274.622 64.0381 274.896 64.9268C275.18 65.8154 275.323 66.9035 275.323 68.1909V80H270.384V68.1909C270.384 67.3364 270.27 66.687 270.042 66.2427C269.826 65.7869 269.507 65.4736 269.085 65.3027C268.675 65.1204 268.185 65.0293 267.615 65.0293C267.023 65.0293 266.504 65.1489 266.06 65.3882C265.616 65.616 265.245 65.9351 264.949 66.3452C264.653 66.7554 264.431 67.2339 264.283 67.7808C264.135 68.3162 264.061 68.903 264.061 69.541ZM284.056 65.3369V80H279.117V61.5088H283.748L284.056 65.3369ZM283.372 70.105H282.005C282.005 68.8175 282.159 67.6326 282.466 66.5503C282.785 65.4565 283.247 64.5109 283.851 63.7134C284.466 62.9045 285.223 62.2778 286.124 61.8335C287.024 61.3892 288.066 61.167 289.251 61.167C290.071 61.167 290.823 61.2923 291.507 61.543C292.19 61.7822 292.777 62.1639 293.267 62.688C293.768 63.2007 294.156 63.8729 294.429 64.7046C294.703 65.5249 294.839 66.5104 294.839 67.6611V80H289.917V68.208C289.917 67.3649 289.804 66.7155 289.576 66.2598C289.348 65.804 289.023 65.485 288.602 65.3027C288.191 65.1204 287.696 65.0293 287.115 65.0293C286.477 65.0293 285.918 65.1603 285.44 65.4224C284.973 65.6844 284.585 66.049 284.278 66.5161C283.97 66.9718 283.742 67.5073 283.594 68.1226C283.446 68.7378 283.372 69.3986 283.372 70.105ZM294.378 69.541L292.618 69.7632C292.618 68.5555 292.766 67.4333 293.062 66.3965C293.37 65.3597 293.82 64.4482 294.412 63.6621C295.016 62.876 295.762 62.2664 296.651 61.8335C297.54 61.3892 298.565 61.167 299.727 61.167C300.616 61.167 301.425 61.298 302.154 61.5601C302.883 61.8107 303.504 62.2152 304.017 62.7734C304.541 63.3203 304.939 64.0381 305.213 64.9268C305.498 65.8154 305.64 66.9035 305.64 68.1909V80H300.701V68.1909C300.701 67.3364 300.587 66.687 300.359 66.2427C300.143 65.7869 299.824 65.4736 299.402 65.3027C298.992 65.1204 298.502 65.0293 297.933 65.0293C297.34 65.0293 296.822 65.1489 296.377 65.3882C295.933 65.616 295.563 65.9351 295.267 66.3452C294.97 66.7554 294.748 67.2339 294.6 67.7808C294.452 68.3162 294.378 68.903 294.378 69.541ZM308.665 70.9424V70.5835C308.665 69.2277 308.859 67.9801 309.246 66.8408C309.633 65.6901 310.197 64.6932 310.938 63.8501C311.679 63.007 312.59 62.3519 313.672 61.8848C314.755 61.4062 315.997 61.167 317.398 61.167C318.799 61.167 320.047 61.4062 321.141 61.8848C322.234 62.3519 323.152 63.007 323.892 63.8501C324.644 64.6932 325.214 65.6901 325.601 66.8408C325.988 67.9801 326.182 69.2277 326.182 70.5835V70.9424C326.182 72.2868 325.988 73.5343 325.601 74.6851C325.214 75.8244 324.644 76.8213 323.892 77.6758C323.152 78.5189 322.24 79.174 321.158 79.6411C320.075 80.1082 318.833 80.3418 317.432 80.3418C316.031 80.3418 314.783 80.1082 313.689 79.6411C312.607 79.174 311.69 78.5189 310.938 77.6758C310.197 76.8213 309.633 75.8244 309.246 74.6851C308.859 73.5343 308.665 72.2868 308.665 70.9424ZM313.587 70.5835V70.9424C313.587 71.7171 313.655 72.4406 313.792 73.1128C313.929 73.785 314.145 74.3774 314.441 74.8901C314.749 75.3914 315.148 75.7845 315.638 76.0693C316.128 76.3542 316.726 76.4966 317.432 76.4966C318.116 76.4966 318.702 76.3542 319.192 76.0693C319.682 75.7845 320.075 75.3914 320.372 74.8901C320.668 74.3774 320.884 73.785 321.021 73.1128C321.169 72.4406 321.243 71.7171 321.243 70.9424V70.5835C321.243 69.8315 321.169 69.1252 321.021 68.4644C320.884 67.7922 320.662 67.1997 320.354 66.687C320.058 66.1629 319.665 65.7528 319.175 65.4565C318.685 65.1603 318.093 65.0122 317.398 65.0122C316.703 65.0122 316.111 65.1603 315.621 65.4565C315.142 65.7528 314.749 66.1629 314.441 66.687C314.145 67.1997 313.929 67.7922 313.792 68.4644C313.655 69.1252 313.587 69.8315 313.587 70.5835ZM340.145 75.5737V61.5088H345.066V80H340.435L340.145 75.5737ZM340.691 71.7798L342.144 71.7456C342.144 72.9761 342.002 74.1211 341.717 75.1807C341.432 76.2288 341.005 77.1403 340.435 77.915C339.865 78.6784 339.148 79.2765 338.282 79.7095C337.416 80.131 336.396 80.3418 335.223 80.3418C334.323 80.3418 333.491 80.2165 332.728 79.9658C331.976 79.7038 331.326 79.2993 330.779 78.7524C330.244 78.1942 329.822 77.4821 329.515 76.6162C329.218 75.7389 329.07 74.6851 329.07 73.4546V61.5088H333.992V73.4888C333.992 74.0356 334.055 74.4971 334.18 74.873C334.317 75.249 334.505 75.5566 334.744 75.7959C334.983 76.0352 335.263 76.2061 335.582 76.3086C335.912 76.4111 336.277 76.4624 336.675 76.4624C337.689 76.4624 338.487 76.2573 339.068 75.8472C339.66 75.437 340.076 74.8787 340.315 74.1724C340.566 73.4546 340.691 72.6571 340.691 71.7798ZM353.646 65.4565V80H348.724V61.5088H353.338L353.646 65.4565ZM352.928 70.105H351.595C351.595 68.7378 351.771 67.5073 352.125 66.4136C352.478 65.3084 352.973 64.3685 353.611 63.5938C354.249 62.8076 355.007 62.2095 355.884 61.7993C356.773 61.3778 357.764 61.167 358.858 61.167C359.724 61.167 360.516 61.2923 361.233 61.543C361.951 61.7936 362.566 62.1924 363.079 62.7393C363.603 63.2861 364.002 64.0096 364.275 64.9097C364.56 65.8097 364.703 66.9092 364.703 68.208V80H359.747V68.1909C359.747 67.3706 359.633 66.7326 359.405 66.2769C359.177 65.8211 358.841 65.5021 358.396 65.3198C357.964 65.1261 357.428 65.0293 356.79 65.0293C356.129 65.0293 355.554 65.1603 355.064 65.4224C354.585 65.6844 354.187 66.049 353.868 66.5161C353.56 66.9718 353.326 67.5073 353.167 68.1226C353.007 68.7378 352.928 69.3986 352.928 70.105ZM373.641 61.5088V80H368.702V61.5088H373.641ZM368.394 56.6895C368.394 55.9717 368.645 55.3792 369.146 54.9121C369.647 54.445 370.319 54.2114 371.163 54.2114C371.994 54.2114 372.661 54.445 373.162 54.9121C373.675 55.3792 373.931 55.9717 373.931 56.6895C373.931 57.4072 373.675 57.9997 373.162 58.4668C372.661 58.9339 371.994 59.1675 371.163 59.1675C370.319 59.1675 369.647 58.9339 369.146 58.4668C368.645 57.9997 368.394 57.4072 368.394 56.6895Z" fill="#888888"/>
<rect x="92" y="181" width="1179" height="80" rx="13.3333" fill="#CCCCCC"/>
<rect x="107" y="196.333" width="208" height="49.3333" rx="4.66667" fill="#888888" stroke="#888888" stroke-width="4"/>
<path d="M179.26 213.167H182.24L185.625 223.719L189.01 213.167H191.99L186.833 228.333H184.417L179.26 213.167ZM177.448 213.167H180.531L181.104 224.792V228.333H177.448V213.167ZM190.719 213.167H193.812V228.333H190.146V224.792L190.719 213.167ZM199.448 227.01L202.365 217.062H206.135L201.604 230.01C201.507 230.295 201.378 230.601 201.219 230.927C201.059 231.26 200.84 231.576 200.563 231.875C200.285 232.174 199.927 232.417 199.49 232.604C199.059 232.792 198.524 232.885 197.885 232.885C197.545 232.885 197.295 232.868 197.135 232.833C196.983 232.806 196.747 232.753 196.427 232.677V230.167C196.517 230.167 196.594 230.167 196.656 230.167C196.726 230.167 196.802 230.167 196.885 230.167C197.26 230.167 197.559 230.128 197.781 230.052C198.01 229.976 198.184 229.865 198.302 229.719C198.427 229.573 198.524 229.396 198.594 229.187L199.448 227.01ZM198.708 217.062L200.927 224.948L201.313 228.667H198.958L194.948 217.062H198.708ZM215.031 224.302C215.031 224.066 214.997 223.854 214.927 223.667C214.858 223.472 214.729 223.292 214.542 223.125C214.354 222.958 214.083 222.792 213.729 222.625C213.382 222.451 212.924 222.271 212.354 222.083C211.688 221.861 211.045 221.611 210.427 221.333C209.809 221.049 209.257 220.719 208.771 220.344C208.285 219.962 207.899 219.517 207.615 219.01C207.33 218.497 207.188 217.899 207.188 217.219C207.188 216.566 207.333 215.979 207.625 215.458C207.917 214.931 208.323 214.483 208.844 214.115C209.372 213.74 209.99 213.455 210.698 213.26C211.406 213.059 212.181 212.958 213.021 212.958C214.132 212.958 215.111 213.153 215.958 213.542C216.813 213.924 217.479 214.469 217.958 215.177C218.444 215.878 218.688 216.708 218.688 217.667H215.052C215.052 217.285 214.972 216.948 214.813 216.656C214.66 216.365 214.427 216.135 214.115 215.969C213.802 215.802 213.41 215.719 212.938 215.719C212.479 215.719 212.094 215.788 211.781 215.927C211.469 216.066 211.233 216.253 211.073 216.49C210.913 216.719 210.833 216.972 210.833 217.25C210.833 217.479 210.896 217.687 211.021 217.875C211.153 218.056 211.337 218.226 211.573 218.385C211.816 218.545 212.108 218.698 212.448 218.844C212.795 218.99 213.184 219.132 213.615 219.271C214.42 219.528 215.135 219.816 215.76 220.135C216.392 220.448 216.924 220.806 217.354 221.208C217.792 221.604 218.122 222.056 218.344 222.562C218.573 223.069 218.688 223.642 218.688 224.281C218.688 224.962 218.556 225.566 218.292 226.094C218.028 226.622 217.649 227.069 217.156 227.437C216.663 227.799 216.073 228.073 215.385 228.26C214.698 228.448 213.931 228.542 213.083 228.542C212.306 228.542 211.538 228.444 210.781 228.25C210.031 228.049 209.351 227.743 208.74 227.333C208.128 226.917 207.639 226.385 207.271 225.74C206.91 225.087 206.729 224.312 206.729 223.417H210.396C210.396 223.861 210.455 224.236 210.573 224.542C210.691 224.847 210.865 225.094 211.094 225.281C211.323 225.462 211.604 225.594 211.938 225.677C212.271 225.753 212.653 225.792 213.083 225.792C213.549 225.792 213.924 225.726 214.208 225.594C214.493 225.455 214.701 225.274 214.833 225.052C214.965 224.823 215.031 224.573 215.031 224.302ZM229.031 225.833L233.26 229.187L230.99 231.104L226.833 227.75L229.031 225.833ZM233.437 220.448V221.062C233.437 222.222 233.274 223.264 232.948 224.187C232.628 225.104 232.17 225.889 231.573 226.542C230.983 227.187 230.285 227.684 229.479 228.031C228.674 228.372 227.785 228.542 226.812 228.542C225.833 228.542 224.937 228.372 224.125 228.031C223.319 227.684 222.618 227.187 222.021 226.542C221.431 225.889 220.972 225.104 220.646 224.187C220.326 223.264 220.167 222.222 220.167 221.062V220.448C220.167 219.288 220.326 218.247 220.646 217.323C220.972 216.399 221.427 215.615 222.01 214.969C222.601 214.316 223.299 213.819 224.104 213.479C224.917 213.132 225.812 212.958 226.792 212.958C227.764 212.958 228.653 213.132 229.458 213.479C230.271 213.819 230.972 214.316 231.562 214.969C232.16 215.615 232.622 216.399 232.948 217.323C233.274 218.247 233.437 219.288 233.437 220.448ZM229.719 221.062V220.427C229.719 219.677 229.653 219.017 229.521 218.448C229.396 217.872 229.208 217.389 228.958 217C228.708 216.611 228.399 216.319 228.031 216.125C227.67 215.924 227.257 215.823 226.792 215.823C226.306 215.823 225.882 215.924 225.521 216.125C225.16 216.319 224.858 216.611 224.615 217C224.372 217.389 224.187 217.872 224.062 218.448C223.944 219.017 223.885 219.677 223.885 220.427V221.062C223.885 221.806 223.944 222.465 224.062 223.042C224.187 223.611 224.372 224.094 224.615 224.49C224.865 224.885 225.17 225.184 225.531 225.385C225.899 225.587 226.326 225.687 226.812 225.687C227.278 225.687 227.691 225.587 228.052 225.385C228.413 225.184 228.715 224.885 228.958 224.49C229.208 224.094 229.396 223.611 229.521 223.042C229.653 222.465 229.719 221.806 229.719 221.062ZM245.323 225.521V228.333H237.656V225.521H245.323ZM238.958 213.167V228.333H235.302V213.167H238.958Z" fill="white"/>
<rect x="339" y="196.333" width="208" height="49.3333" rx="4.66667" fill="#888888" stroke="#888888" stroke-width="4"/>
<path d="M419.073 225.521V228.333H411.406V225.521H419.073ZM412.708 213.167V228.333H409.052V213.167H412.708ZM426.302 225.5V220.854C426.302 220.535 426.257 220.26 426.167 220.031C426.076 219.802 425.934 219.625 425.74 219.5C425.545 219.368 425.285 219.302 424.958 219.302C424.694 219.302 424.469 219.347 424.281 219.437C424.094 219.528 423.951 219.663 423.854 219.844C423.757 220.024 423.708 220.253 423.708 220.531H420.198C420.198 220.01 420.312 219.528 420.542 219.083C420.778 218.632 421.111 218.24 421.542 217.906C421.979 217.573 422.5 217.316 423.104 217.135C423.715 216.948 424.396 216.854 425.146 216.854C426.042 216.854 426.84 217.003 427.542 217.302C428.25 217.601 428.809 218.049 429.219 218.646C429.628 219.236 429.833 219.979 429.833 220.875V225.49C429.833 226.226 429.875 226.785 429.958 227.167C430.042 227.542 430.16 227.872 430.312 228.156V228.333H426.792C426.625 227.986 426.5 227.562 426.417 227.062C426.34 226.556 426.302 226.035 426.302 225.5ZM426.729 221.448L426.75 223.323H425.198C424.872 223.323 424.594 223.368 424.365 223.458C424.142 223.549 423.962 223.674 423.823 223.833C423.691 223.986 423.594 224.16 423.531 224.354C423.476 224.549 423.448 224.753 423.448 224.969C423.448 225.177 423.497 225.365 423.594 225.531C423.698 225.691 423.837 225.816 424.01 225.906C424.184 225.997 424.378 226.042 424.594 226.042C424.983 226.042 425.312 225.969 425.583 225.823C425.861 225.67 426.073 225.486 426.219 225.271C426.365 225.056 426.437 224.854 426.437 224.667L427.208 226.104C427.069 226.382 426.91 226.663 426.729 226.948C426.556 227.233 426.337 227.497 426.073 227.74C425.816 227.976 425.5 228.17 425.125 228.323C424.75 228.469 424.295 228.542 423.76 228.542C423.066 228.542 422.427 228.399 421.844 228.115C421.267 227.83 420.806 227.434 420.458 226.927C420.111 226.413 419.937 225.823 419.937 225.156C419.937 224.573 420.042 224.052 420.25 223.594C420.465 223.135 420.788 222.747 421.219 222.427C421.649 222.108 422.198 221.865 422.865 221.698C423.531 221.531 424.316 221.448 425.219 221.448H426.729ZM435.323 219.854V228.333H431.812V217.062H435.094L435.323 219.854ZM438.656 216.979L438.594 220.24C438.455 220.226 438.267 220.208 438.031 220.187C437.795 220.167 437.597 220.156 437.437 220.156C437.028 220.156 436.674 220.205 436.375 220.302C436.083 220.392 435.84 220.531 435.646 220.719C435.458 220.899 435.319 221.128 435.229 221.406C435.146 221.684 435.108 222.007 435.115 222.375L434.479 221.958C434.479 221.201 434.552 220.514 434.698 219.896C434.851 219.271 435.066 218.733 435.344 218.281C435.622 217.823 435.958 217.472 436.354 217.229C436.75 216.979 437.194 216.854 437.687 216.854C437.861 216.854 438.031 216.865 438.198 216.885C438.372 216.906 438.524 216.937 438.656 216.979ZM445.406 225.5V220.854C445.406 220.535 445.361 220.26 445.271 220.031C445.181 219.802 445.038 219.625 444.844 219.5C444.649 219.368 444.389 219.302 444.063 219.302C443.799 219.302 443.573 219.347 443.385 219.437C443.198 219.528 443.056 219.663 442.958 219.844C442.861 220.024 442.813 220.253 442.813 220.531H439.302C439.302 220.01 439.417 219.528 439.646 219.083C439.882 218.632 440.215 218.24 440.646 217.906C441.083 217.573 441.604 217.316 442.208 217.135C442.819 216.948 443.5 216.854 444.25 216.854C445.146 216.854 445.944 217.003 446.646 217.302C447.354 217.601 447.913 218.049 448.323 218.646C448.733 219.236 448.938 219.979 448.938 220.875V225.49C448.938 226.226 448.979 226.785 449.063 227.167C449.146 227.542 449.264 227.872 449.417 228.156V228.333H445.896C445.729 227.986 445.604 227.562 445.521 227.062C445.444 226.556 445.406 226.035 445.406 225.5ZM445.833 221.448L445.854 223.323H444.302C443.976 223.323 443.698 223.368 443.469 223.458C443.247 223.549 443.066 223.674 442.927 223.833C442.795 223.986 442.698 224.16 442.635 224.354C442.58 224.549 442.552 224.753 442.552 224.969C442.552 225.177 442.601 225.365 442.698 225.531C442.802 225.691 442.941 225.816 443.115 225.906C443.288 225.997 443.483 226.042 443.698 226.042C444.087 226.042 444.417 225.969 444.688 225.823C444.965 225.67 445.177 225.486 445.323 225.271C445.469 225.056 445.542 224.854 445.542 224.667L446.313 226.104C446.174 226.382 446.014 226.663 445.833 226.948C445.66 227.233 445.441 227.497 445.177 227.74C444.92 227.976 444.604 228.17 444.229 228.323C443.854 228.469 443.399 228.542 442.865 228.542C442.17 228.542 441.531 228.399 440.948 228.115C440.372 227.83 439.91 227.434 439.563 226.927C439.215 226.413 439.042 225.823 439.042 225.156C439.042 224.573 439.146 224.052 439.354 223.594C439.569 223.135 439.892 222.747 440.323 222.427C440.753 222.108 441.302 221.865 441.969 221.698C442.635 221.531 443.42 221.448 444.323 221.448H445.833ZM454.781 225.927L457 217.062H460.698L457.01 228.333H454.823L454.781 225.927ZM453.469 217.062L455.656 225.927L455.635 228.333H453.437L449.76 217.062H453.469ZM467.052 228.542C466.135 228.542 465.316 228.399 464.594 228.115C463.872 227.823 463.26 227.424 462.76 226.917C462.267 226.41 461.889 225.826 461.625 225.167C461.368 224.507 461.24 223.809 461.24 223.073V222.677C461.24 221.851 461.354 221.087 461.583 220.385C461.812 219.677 462.153 219.059 462.604 218.531C463.056 218.003 463.622 217.594 464.302 217.302C464.983 217.003 465.774 216.854 466.677 216.854C467.476 216.854 468.191 216.983 468.823 217.24C469.455 217.497 469.99 217.865 470.427 218.344C470.872 218.823 471.208 219.403 471.437 220.083C471.674 220.764 471.792 221.528 471.792 222.375V223.802H462.583V221.604H468.365V221.333C468.372 220.958 468.306 220.639 468.167 220.375C468.035 220.111 467.84 219.91 467.583 219.771C467.326 219.632 467.014 219.562 466.646 219.562C466.264 219.562 465.948 219.646 465.698 219.812C465.455 219.979 465.264 220.208 465.125 220.5C464.993 220.785 464.899 221.115 464.844 221.49C464.788 221.865 464.76 222.26 464.76 222.677V223.073C464.76 223.49 464.816 223.868 464.927 224.208C465.045 224.549 465.212 224.84 465.427 225.083C465.649 225.319 465.913 225.503 466.219 225.635C466.531 225.767 466.885 225.833 467.281 225.833C467.76 225.833 468.233 225.743 468.698 225.562C469.163 225.382 469.562 225.083 469.896 224.667L471.49 226.562C471.26 226.889 470.934 227.205 470.51 227.51C470.094 227.816 469.594 228.066 469.01 228.26C468.427 228.448 467.774 228.542 467.052 228.542ZM476.927 212.333V228.333H473.406V212.333H476.927Z" fill="white"/>
<rect x="571" y="196.333" width="208" height="49.3333" rx="4.66667" fill="#888888" stroke="#888888" stroke-width="4"/>
<path d="M644.729 216.354L641.031 228.333H637.104L642.677 213.167H645.167L644.729 216.354ZM647.792 228.333L644.083 216.354L643.604 213.167H646.125L651.729 228.333H647.792ZM647.646 222.677V225.5H639.865V222.677H647.646ZM655.625 219.469V228.333H652.115V217.062H655.406L655.625 219.469ZM655.208 222.312L654.385 222.333C654.385 221.472 654.49 220.705 654.698 220.031C654.906 219.351 655.201 218.774 655.583 218.302C655.965 217.83 656.42 217.472 656.948 217.229C657.483 216.979 658.076 216.854 658.729 216.854C659.25 216.854 659.726 216.931 660.156 217.083C660.594 217.236 660.969 217.483 661.281 217.823C661.601 218.163 661.844 218.615 662.01 219.177C662.184 219.733 662.271 220.42 662.271 221.24V228.333H658.74V221.229C658.74 220.778 658.677 220.434 658.552 220.198C658.427 219.955 658.247 219.788 658.01 219.698C657.774 219.608 657.486 219.562 657.146 219.562C656.785 219.562 656.479 219.632 656.229 219.771C655.979 219.91 655.778 220.104 655.625 220.354C655.479 220.597 655.372 220.885 655.302 221.219C655.24 221.552 655.208 221.917 655.208 222.312ZM671.302 217.062H674.49V227.896C674.49 228.937 674.25 229.819 673.771 230.542C673.292 231.271 672.622 231.823 671.76 232.198C670.906 232.58 669.906 232.771 668.76 232.771C668.253 232.771 667.736 232.705 667.208 232.573C666.681 232.448 666.187 232.26 665.729 232.01C665.271 231.76 664.885 231.451 664.573 231.083L666.042 229.021C666.326 229.34 666.684 229.611 667.115 229.833C667.545 230.062 668.052 230.177 668.635 230.177C669.142 230.177 669.566 230.087 669.906 229.906C670.253 229.726 670.517 229.462 670.698 229.115C670.878 228.774 670.969 228.361 670.969 227.875V219.729L671.302 217.062ZM663.812 222.833V222.615C663.812 221.76 663.917 220.983 664.125 220.281C664.34 219.573 664.646 218.965 665.042 218.458C665.444 217.944 665.931 217.549 666.5 217.271C667.069 216.993 667.712 216.854 668.427 216.854C669.198 216.854 669.83 217.003 670.323 217.302C670.823 217.594 671.222 218.003 671.521 218.531C671.826 219.059 672.062 219.677 672.229 220.385C672.403 221.087 672.549 221.844 672.667 222.656V222.917C672.549 223.681 672.385 224.403 672.177 225.083C671.976 225.757 671.712 226.354 671.385 226.875C671.059 227.396 670.649 227.806 670.156 228.104C669.67 228.396 669.087 228.542 668.406 228.542C667.698 228.542 667.059 228.399 666.49 228.115C665.927 227.83 665.444 227.431 665.042 226.917C664.646 226.403 664.34 225.799 664.125 225.104C663.917 224.41 663.812 223.653 663.812 222.833ZM667.323 222.615V222.833C667.323 223.257 667.361 223.649 667.437 224.01C667.521 224.372 667.646 224.691 667.812 224.969C667.979 225.24 668.184 225.451 668.427 225.604C668.677 225.757 668.969 225.833 669.302 225.833C669.809 225.833 670.219 225.726 670.531 225.51C670.844 225.295 671.069 224.99 671.208 224.594C671.347 224.198 671.406 223.733 671.385 223.198V222.375C671.399 221.917 671.368 221.514 671.292 221.167C671.215 220.812 671.094 220.517 670.927 220.281C670.767 220.045 670.552 219.868 670.281 219.75C670.017 219.625 669.698 219.562 669.323 219.562C668.997 219.562 668.708 219.639 668.458 219.792C668.208 219.944 668 220.16 667.833 220.437C667.667 220.708 667.538 221.031 667.448 221.406C667.365 221.774 667.323 222.177 667.323 222.615ZM683.094 225.594V217.062H686.615V228.333H683.323L683.094 225.594ZM683.427 223.302L684.344 223.281C684.344 224.038 684.253 224.74 684.073 225.385C683.892 226.024 683.625 226.58 683.271 227.052C682.924 227.524 682.493 227.892 681.979 228.156C681.472 228.413 680.885 228.542 680.219 228.542C679.663 228.542 679.153 228.465 678.687 228.312C678.229 228.153 677.833 227.906 677.5 227.573C677.167 227.233 676.906 226.799 676.719 226.271C676.538 225.736 676.448 225.097 676.448 224.354V217.062H679.958V224.375C679.958 224.625 679.99 224.84 680.052 225.021C680.115 225.201 680.205 225.354 680.323 225.479C680.441 225.597 680.587 225.687 680.76 225.75C680.941 225.806 681.146 225.833 681.375 225.833C681.903 225.833 682.316 225.722 682.615 225.5C682.913 225.278 683.122 224.976 683.24 224.594C683.365 224.212 683.427 223.781 683.427 223.302ZM692.26 212.333V228.333H688.74V212.333H692.26ZM700.281 225.5V220.854C700.281 220.535 700.236 220.26 700.146 220.031C700.056 219.802 699.913 219.625 699.719 219.5C699.524 219.368 699.264 219.302 698.938 219.302C698.674 219.302 698.448 219.347 698.26 219.437C698.073 219.528 697.931 219.663 697.833 219.844C697.736 220.024 697.688 220.253 697.688 220.531H694.177C694.177 220.01 694.292 219.528 694.521 219.083C694.757 218.632 695.09 218.24 695.521 217.906C695.958 217.573 696.479 217.316 697.083 217.135C697.694 216.948 698.375 216.854 699.125 216.854C700.021 216.854 700.819 217.003 701.521 217.302C702.229 217.601 702.788 218.049 703.198 218.646C703.608 219.236 703.813 219.979 703.813 220.875V225.49C703.813 226.226 703.854 226.785 703.938 227.167C704.021 227.542 704.139 227.872 704.292 228.156V228.333H700.771C700.604 227.986 700.479 227.562 700.396 227.062C700.319 226.556 700.281 226.035 700.281 225.5ZM700.708 221.448L700.729 223.323H699.177C698.851 223.323 698.573 223.368 698.344 223.458C698.122 223.549 697.941 223.674 697.802 223.833C697.67 223.986 697.573 224.16 697.51 224.354C697.455 224.549 697.427 224.753 697.427 224.969C697.427 225.177 697.476 225.365 697.573 225.531C697.677 225.691 697.816 225.816 697.99 225.906C698.163 225.997 698.358 226.042 698.573 226.042C698.962 226.042 699.292 225.969 699.563 225.823C699.84 225.67 700.052 225.486 700.198 225.271C700.344 225.056 700.417 224.854 700.417 224.667L701.188 226.104C701.049 226.382 700.889 226.663 700.708 226.948C700.535 227.233 700.316 227.497 700.052 227.74C699.795 227.976 699.479 228.17 699.104 228.323C698.729 228.469 698.274 228.542 697.74 228.542C697.045 228.542 696.406 228.399 695.823 228.115C695.247 227.83 694.785 227.434 694.438 226.927C694.09 226.413 693.917 225.823 693.917 225.156C693.917 224.573 694.021 224.052 694.229 223.594C694.444 223.135 694.767 222.747 695.198 222.427C695.628 222.108 696.177 221.865 696.844 221.698C697.51 221.531 698.295 221.448 699.198 221.448H700.708ZM709.302 219.854V228.333H705.792V217.062H709.073L709.302 219.854ZM712.635 216.979L712.573 220.24C712.434 220.226 712.247 220.208 712.01 220.187C711.774 220.167 711.576 220.156 711.417 220.156C711.007 220.156 710.653 220.205 710.354 220.302C710.062 220.392 709.819 220.531 709.625 220.719C709.437 220.899 709.299 221.128 709.208 221.406C709.125 221.684 709.087 222.007 709.094 222.375L708.458 221.958C708.458 221.201 708.531 220.514 708.677 219.896C708.83 219.271 709.045 218.733 709.323 218.281C709.601 217.823 709.937 217.472 710.333 217.229C710.729 216.979 711.174 216.854 711.667 216.854C711.84 216.854 712.01 216.865 712.177 216.885C712.351 216.906 712.503 216.937 712.635 216.979Z" fill="white"/>
</svg>
