<svg width="1363" height="167" viewBox="0 0 1363 167" fill="none" xmlns="http://www.w3.org/2000/svg">
<rect width="1363" height="167" rx="15" fill="#F0F0F0"/>
<path d="M0 15C0 6.71573 6.71573 0 15 0H37V167H15C6.71573 167 0 160.284 0 152V15Z" fill="#424241"/>
<path d="M100.906 54.9219L93.3945 52.2383V49.0859L103.602 53.375V55.6367L100.906 54.9219ZM93.3945 57.1719L100.918 54.4297L103.602 53.7852V56.0352L93.3945 60.3242V57.1719ZM120.781 57.5352C120.781 57.2305 120.734 56.957 120.641 56.7148C120.555 56.4648 120.391 56.2383 120.148 56.0352C119.906 55.8242 119.566 55.6172 119.129 55.4141C118.691 55.2109 118.125 55 117.43 54.7812C116.656 54.5312 115.922 54.25 115.227 53.9375C114.539 53.625 113.93 53.2617 113.398 52.8477C112.875 52.4258 112.461 51.9375 112.156 51.3828C111.859 50.8281 111.711 50.1836 111.711 49.4492C111.711 48.7383 111.867 48.0938 112.18 47.5156C112.492 46.9297 112.93 46.4297 113.492 46.0156C114.055 45.5938 114.719 45.2695 115.484 45.043C116.258 44.8164 117.105 44.7031 118.027 44.7031C119.285 44.7031 120.383 44.9297 121.32 45.3828C122.258 45.8359 122.984 46.457 123.5 47.2461C124.023 48.0352 124.285 48.9375 124.285 49.9531H120.793C120.793 49.4531 120.688 49.0156 120.477 48.6406C120.273 48.2578 119.961 47.957 119.539 47.7383C119.125 47.5195 118.602 47.4102 117.969 47.4102C117.359 47.4102 116.852 47.5039 116.445 47.6914C116.039 47.8711 115.734 48.1172 115.531 48.4297C115.328 48.7344 115.227 49.0781 115.227 49.4609C115.227 49.75 115.297 50.0117 115.438 50.2461C115.586 50.4805 115.805 50.6992 116.094 50.9023C116.383 51.1055 116.738 51.2969 117.16 51.4766C117.582 51.6562 118.07 51.832 118.625 52.0039C119.555 52.2852 120.371 52.6016 121.074 52.9531C121.785 53.3047 122.379 53.6992 122.855 54.1367C123.332 54.5742 123.691 55.0703 123.934 55.625C124.176 56.1797 124.297 56.8086 124.297 57.5117C124.297 58.2539 124.152 58.918 123.863 59.5039C123.574 60.0898 123.156 60.5859 122.609 60.9922C122.062 61.3984 121.41 61.707 120.652 61.918C119.895 62.1289 119.047 62.2344 118.109 62.2344C117.266 62.2344 116.434 62.125 115.613 61.9062C114.793 61.6797 114.047 61.3398 113.375 60.8867C112.711 60.4336 112.18 59.8555 111.781 59.1523C111.383 58.4492 111.184 57.6172 111.184 56.6562H114.711C114.711 57.1875 114.793 57.6367 114.957 58.0039C115.121 58.3711 115.352 58.668 115.648 58.8945C115.953 59.1211 116.312 59.2852 116.727 59.3867C117.148 59.4883 117.609 59.5391 118.109 59.5391C118.719 59.5391 119.219 59.4531 119.609 59.2812C120.008 59.1094 120.301 58.8711 120.488 58.5664C120.684 58.2617 120.781 57.918 120.781 57.5352ZM133.977 58.9648V49.3203H137.352V62H134.176L133.977 58.9648ZM134.352 56.3633L135.348 56.3398C135.348 57.1836 135.25 57.9688 135.055 58.6953C134.859 59.4141 134.566 60.0391 134.176 60.5703C133.785 61.0938 133.293 61.5039 132.699 61.8008C132.105 62.0898 131.406 62.2344 130.602 62.2344C129.984 62.2344 129.414 62.1484 128.891 61.9766C128.375 61.7969 127.93 61.5195 127.555 61.1445C127.188 60.7617 126.898 60.2734 126.688 59.6797C126.484 59.0781 126.383 58.3555 126.383 57.5117V49.3203H129.758V57.5352C129.758 57.9102 129.801 58.2266 129.887 58.4844C129.98 58.7422 130.109 58.9531 130.273 59.1172C130.438 59.2812 130.629 59.3984 130.848 59.4688C131.074 59.5391 131.324 59.5742 131.598 59.5742C132.293 59.5742 132.84 59.4336 133.238 59.1523C133.645 58.8711 133.93 58.4883 134.094 58.0039C134.266 57.5117 134.352 56.9648 134.352 56.3633ZM143.305 51.7578V66.875H139.93V49.3203H143.059L143.305 51.7578ZM151.332 55.5195V55.7656C151.332 56.6875 151.223 57.543 151.004 58.332C150.793 59.1211 150.48 59.8086 150.066 60.3945C149.652 60.9727 149.137 61.4258 148.52 61.7539C147.91 62.0742 147.207 62.2344 146.41 62.2344C145.637 62.2344 144.965 62.0781 144.395 61.7656C143.824 61.4531 143.344 61.0156 142.953 60.4531C142.57 59.8828 142.262 59.2227 142.027 58.4727C141.793 57.7227 141.613 56.918 141.488 56.0586V55.4141C141.613 54.4922 141.793 53.6484 142.027 52.8828C142.262 52.1094 142.57 51.4414 142.953 50.8789C143.344 50.3086 143.82 49.8672 144.383 49.5547C144.953 49.2422 145.621 49.0859 146.387 49.0859C147.191 49.0859 147.898 49.2383 148.508 49.543C149.125 49.8477 149.641 50.2852 150.055 50.8555C150.477 51.4258 150.793 52.1055 151.004 52.8945C151.223 53.6836 151.332 54.5586 151.332 55.5195ZM147.945 55.7656V55.5195C147.945 54.9805 147.898 54.4844 147.805 54.0312C147.719 53.5703 147.578 53.168 147.383 52.8242C147.195 52.4805 146.945 52.2148 146.633 52.0273C146.328 51.832 145.957 51.7344 145.52 51.7344C145.059 51.7344 144.664 51.8086 144.336 51.957C144.016 52.1055 143.754 52.3203 143.551 52.6016C143.348 52.8828 143.195 53.2188 143.094 53.6094C142.992 54 142.93 54.4414 142.906 54.9336V56.5625C142.945 57.1406 143.055 57.6602 143.234 58.1211C143.414 58.5742 143.691 58.9336 144.066 59.1992C144.441 59.4648 144.934 59.5977 145.543 59.5977C145.988 59.5977 146.363 59.5 146.668 59.3047C146.973 59.1016 147.219 58.8242 147.406 58.4727C147.602 58.1211 147.738 57.7148 147.816 57.2539C147.902 56.793 147.945 56.2969 147.945 55.7656ZM156.805 51.7578V66.875H153.43V49.3203H156.559L156.805 51.7578ZM164.832 55.5195V55.7656C164.832 56.6875 164.723 57.543 164.504 58.332C164.293 59.1211 163.98 59.8086 163.566 60.3945C163.152 60.9727 162.637 61.4258 162.02 61.7539C161.41 62.0742 160.707 62.2344 159.91 62.2344C159.137 62.2344 158.465 62.0781 157.895 61.7656C157.324 61.4531 156.844 61.0156 156.453 60.4531C156.07 59.8828 155.762 59.2227 155.527 58.4727C155.293 57.7227 155.113 56.918 154.988 56.0586V55.4141C155.113 54.4922 155.293 53.6484 155.527 52.8828C155.762 52.1094 156.07 51.4414 156.453 50.8789C156.844 50.3086 157.32 49.8672 157.883 49.5547C158.453 49.2422 159.121 49.0859 159.887 49.0859C160.691 49.0859 161.398 49.2383 162.008 49.543C162.625 49.8477 163.141 50.2852 163.555 50.8555C163.977 51.4258 164.293 52.1055 164.504 52.8945C164.723 53.6836 164.832 54.5586 164.832 55.5195ZM161.445 55.7656V55.5195C161.445 54.9805 161.398 54.4844 161.305 54.0312C161.219 53.5703 161.078 53.168 160.883 52.8242C160.695 52.4805 160.445 52.2148 160.133 52.0273C159.828 51.832 159.457 51.7344 159.02 51.7344C158.559 51.7344 158.164 51.8086 157.836 51.957C157.516 52.1055 157.254 52.3203 157.051 52.6016C156.848 52.8828 156.695 53.2188 156.594 53.6094C156.492 54 156.43 54.4414 156.406 54.9336V56.5625C156.445 57.1406 156.555 57.6602 156.734 58.1211C156.914 58.5742 157.191 58.9336 157.566 59.1992C157.941 59.4648 158.434 59.5977 159.043 59.5977C159.488 59.5977 159.863 59.5 160.168 59.3047C160.473 59.1016 160.719 58.8242 160.906 58.4727C161.102 58.1211 161.238 57.7148 161.316 57.2539C161.402 56.793 161.445 56.2969 161.445 55.7656ZM166.391 55.7891V55.543C166.391 54.6133 166.523 53.7578 166.789 52.9766C167.055 52.1875 167.441 51.5039 167.949 50.9258C168.457 50.3477 169.082 49.8984 169.824 49.5781C170.566 49.25 171.418 49.0859 172.379 49.0859C173.34 49.0859 174.195 49.25 174.945 49.5781C175.695 49.8984 176.324 50.3477 176.832 50.9258C177.348 51.5039 177.738 52.1875 178.004 52.9766C178.27 53.7578 178.402 54.6133 178.402 55.543V55.7891C178.402 56.7109 178.27 57.5664 178.004 58.3555C177.738 59.1367 177.348 59.8203 176.832 60.4062C176.324 60.9844 175.699 61.4336 174.957 61.7539C174.215 62.0742 173.363 62.2344 172.402 62.2344C171.441 62.2344 170.586 62.0742 169.836 61.7539C169.094 61.4336 168.465 60.9844 167.949 60.4062C167.441 59.8203 167.055 59.1367 166.789 58.3555C166.523 57.5664 166.391 56.7109 166.391 55.7891ZM169.766 55.543V55.7891C169.766 56.3203 169.812 56.8164 169.906 57.2773C170 57.7383 170.148 58.1445 170.352 58.4961C170.562 58.8398 170.836 59.1094 171.172 59.3047C171.508 59.5 171.918 59.5977 172.402 59.5977C172.871 59.5977 173.273 59.5 173.609 59.3047C173.945 59.1094 174.215 58.8398 174.418 58.4961C174.621 58.1445 174.77 57.7383 174.863 57.2773C174.965 56.8164 175.016 56.3203 175.016 55.7891V55.543C175.016 55.0273 174.965 54.543 174.863 54.0898C174.77 53.6289 174.617 53.2227 174.406 52.8711C174.203 52.5117 173.934 52.2305 173.598 52.0273C173.262 51.8242 172.855 51.7227 172.379 51.7227C171.902 51.7227 171.496 51.8242 171.16 52.0273C170.832 52.2305 170.562 52.5117 170.352 52.8711C170.148 53.2227 170 53.6289 169.906 54.0898C169.812 54.543 169.766 55.0273 169.766 55.543ZM183.852 52.0859V62H180.477V49.3203H183.652L183.852 52.0859ZM187.672 49.2383L187.613 52.3672C187.449 52.3438 187.25 52.3242 187.016 52.3086C186.789 52.2852 186.582 52.2734 186.395 52.2734C185.918 52.2734 185.504 52.3359 185.152 52.4609C184.809 52.5781 184.52 52.7539 184.285 52.9883C184.059 53.2227 183.887 53.5078 183.77 53.8438C183.66 54.1797 183.598 54.5625 183.582 54.9922L182.902 54.7812C182.902 53.9609 182.984 53.207 183.148 52.5195C183.312 51.8242 183.551 51.2188 183.863 50.7031C184.184 50.1875 184.574 49.7891 185.035 49.5078C185.496 49.2266 186.023 49.0859 186.617 49.0859C186.805 49.0859 186.996 49.1016 187.191 49.1328C187.387 49.1562 187.547 49.1914 187.672 49.2383ZM196.062 49.3203V51.7109H188.68V49.3203H196.062ZM190.508 46.1914H193.883V58.1797C193.883 58.5469 193.93 58.8281 194.023 59.0234C194.125 59.2188 194.273 59.3555 194.469 59.4336C194.664 59.5039 194.91 59.5391 195.207 59.5391C195.418 59.5391 195.605 59.5312 195.77 59.5156C195.941 59.4922 196.086 59.4688 196.203 59.4453L196.215 61.9297C195.926 62.0234 195.613 62.0977 195.277 62.1523C194.941 62.207 194.57 62.2344 194.164 62.2344C193.422 62.2344 192.773 62.1133 192.219 61.8711C191.672 61.6211 191.25 61.2227 190.953 60.6758C190.656 60.1289 190.508 59.4102 190.508 58.5195V46.1914Z" fill="#888888"/>
<path d="M109.93 86.0078V118H102.217V86.0078H109.93ZM119.554 86.0078V91.9624H92.813V86.0078H119.554ZM132.012 118.439C130.079 118.439 128.35 118.139 126.827 117.539C125.303 116.923 124.014 116.081 122.959 115.012C121.919 113.942 121.121 112.712 120.564 111.32C120.022 109.929 119.751 108.457 119.751 106.904V106.069C119.751 104.326 119.993 102.714 120.477 101.235C120.96 99.7407 121.678 98.437 122.63 97.3237C123.582 96.2104 124.776 95.3462 126.211 94.731C127.647 94.1011 129.317 93.7861 131.221 93.7861C132.906 93.7861 134.415 94.0571 135.748 94.5991C137.081 95.1411 138.208 95.9175 139.131 96.9282C140.069 97.939 140.779 99.1621 141.263 100.598C141.761 102.033 142.01 103.645 142.01 105.432V108.442H122.586V103.806H134.781V103.234C134.795 102.443 134.656 101.77 134.363 101.213C134.085 100.656 133.675 100.231 133.133 99.9385C132.591 99.6455 131.932 99.499 131.155 99.499C130.35 99.499 129.683 99.6748 129.156 100.026C128.643 100.378 128.24 100.861 127.947 101.477C127.669 102.077 127.471 102.773 127.354 103.564C127.237 104.355 127.178 105.19 127.178 106.069V106.904C127.178 107.783 127.295 108.581 127.53 109.299C127.779 110.017 128.13 110.632 128.584 111.145C129.053 111.643 129.61 112.031 130.254 112.309C130.914 112.587 131.661 112.727 132.496 112.727C133.506 112.727 134.502 112.536 135.484 112.155C136.465 111.774 137.308 111.145 138.011 110.266L141.373 114.265C140.889 114.953 140.201 115.62 139.307 116.264C138.428 116.909 137.374 117.436 136.143 117.846C134.913 118.242 133.536 118.439 132.012 118.439ZM155.062 112.727C155.75 112.727 156.336 112.602 156.819 112.353C157.317 112.089 157.691 111.723 157.94 111.254C158.204 110.771 158.328 110.192 158.313 109.519H165.279C165.293 111.306 164.854 112.873 163.96 114.221C163.082 115.554 161.88 116.594 160.357 117.341C158.848 118.073 157.142 118.439 155.237 118.439C153.377 118.439 151.751 118.139 150.359 117.539C148.968 116.923 147.803 116.074 146.866 114.99C145.943 113.891 145.247 112.609 144.778 111.145C144.324 109.68 144.097 108.09 144.097 106.376V105.871C144.097 104.157 144.324 102.568 144.778 101.103C145.247 99.6235 145.943 98.3418 146.866 97.2578C147.803 96.1592 148.96 95.3096 150.337 94.709C151.729 94.0938 153.348 93.7861 155.193 93.7861C157.171 93.7861 158.914 94.1597 160.423 94.9067C161.946 95.6538 163.14 96.7378 164.004 98.1587C164.869 99.5796 165.293 101.301 165.279 103.322H158.313C158.328 102.604 158.218 101.96 157.984 101.389C157.75 100.817 157.383 100.363 156.885 100.026C156.402 99.6748 155.779 99.499 155.018 99.499C154.256 99.499 153.641 99.6675 153.172 100.004C152.703 100.341 152.344 100.81 152.095 101.411C151.861 101.997 151.7 102.67 151.612 103.432C151.539 104.194 151.502 105.007 151.502 105.871V106.376C151.502 107.255 151.539 108.083 151.612 108.859C151.7 109.621 151.868 110.295 152.117 110.881C152.366 111.452 152.725 111.906 153.194 112.243C153.663 112.565 154.285 112.727 155.062 112.727ZM175.694 84.25V118H168.289V84.25H175.694ZM174.815 105.3L173.079 105.344C173.079 103.674 173.284 102.136 173.694 100.729C174.104 99.3232 174.69 98.1001 175.452 97.0601C176.214 96.02 177.129 95.2144 178.199 94.6431C179.268 94.0718 180.455 93.7861 181.758 93.7861C182.93 93.7861 184 93.9546 184.966 94.2915C185.948 94.6284 186.79 95.1704 187.493 95.9175C188.211 96.6646 188.76 97.6387 189.141 98.8398C189.537 100.041 189.734 101.506 189.734 103.234V118H182.286V103.19C182.286 102.224 182.146 101.477 181.868 100.949C181.604 100.407 181.224 100.034 180.726 99.8286C180.228 99.6089 179.62 99.499 178.902 99.499C178.038 99.499 177.334 99.6455 176.792 99.9385C176.25 100.231 175.833 100.642 175.54 101.169C175.262 101.682 175.071 102.29 174.969 102.993C174.866 103.696 174.815 104.465 174.815 105.3ZM221.88 109.497C221.88 108.999 221.807 108.552 221.661 108.156C221.514 107.746 221.243 107.365 220.848 107.014C220.452 106.662 219.881 106.311 219.134 105.959C218.401 105.593 217.435 105.212 216.233 104.816C214.827 104.348 213.472 103.82 212.168 103.234C210.865 102.634 209.7 101.938 208.675 101.147C207.649 100.341 206.836 99.4038 206.236 98.3345C205.635 97.2505 205.335 95.9907 205.335 94.5552C205.335 93.1782 205.643 91.9404 206.258 90.8418C206.873 89.7285 207.73 88.7837 208.829 88.0073C209.942 87.2163 211.246 86.6157 212.74 86.2056C214.234 85.7808 215.867 85.5684 217.64 85.5684C219.983 85.5684 222.049 85.9785 223.836 86.7988C225.638 87.6045 227.044 88.7544 228.055 90.2485C229.08 91.728 229.593 93.4785 229.593 95.5H221.924C221.924 94.6943 221.756 93.9839 221.419 93.3687C221.097 92.7534 220.606 92.27 219.947 91.9185C219.288 91.5669 218.46 91.3911 217.464 91.3911C216.497 91.3911 215.684 91.5376 215.025 91.8306C214.366 92.1235 213.868 92.519 213.531 93.0171C213.194 93.5005 213.025 94.0352 213.025 94.6211C213.025 95.1045 213.157 95.5439 213.421 95.9395C213.699 96.3203 214.087 96.6792 214.585 97.0161C215.098 97.353 215.713 97.6753 216.431 97.9829C217.164 98.2905 217.984 98.5908 218.892 98.8838C220.591 99.4258 222.1 100.034 223.418 100.708C224.751 101.367 225.872 102.121 226.78 102.971C227.703 103.806 228.399 104.758 228.868 105.827C229.351 106.896 229.593 108.105 229.593 109.453C229.593 110.888 229.314 112.163 228.758 113.276C228.201 114.389 227.403 115.334 226.363 116.11C225.323 116.872 224.078 117.451 222.627 117.846C221.177 118.242 219.559 118.439 217.771 118.439C216.131 118.439 214.512 118.234 212.916 117.824C211.333 117.399 209.898 116.755 208.609 115.891C207.32 115.012 206.287 113.891 205.511 112.529C204.749 111.152 204.368 109.519 204.368 107.629H212.103C212.103 108.566 212.227 109.357 212.476 110.002C212.725 110.646 213.091 111.167 213.575 111.562C214.058 111.943 214.651 112.221 215.354 112.397C216.058 112.558 216.863 112.639 217.771 112.639C218.753 112.639 219.544 112.5 220.145 112.221C220.745 111.928 221.185 111.547 221.463 111.079C221.741 110.595 221.88 110.068 221.88 109.497ZM245.743 94.2256V99.3672H231.417V94.2256H245.743ZM234.427 88.3149H241.832V110.244C241.832 110.874 241.905 111.364 242.051 111.716C242.198 112.053 242.447 112.294 242.798 112.441C243.165 112.573 243.648 112.639 244.249 112.639C244.673 112.639 245.025 112.631 245.303 112.617C245.582 112.587 245.845 112.551 246.094 112.507V117.802C245.464 118.007 244.805 118.161 244.117 118.264C243.428 118.381 242.696 118.439 241.919 118.439C240.337 118.439 238.982 118.19 237.854 117.692C236.741 117.194 235.892 116.411 235.306 115.341C234.72 114.272 234.427 112.88 234.427 111.167V88.3149ZM261.036 112.023V102.224C261.036 101.55 260.94 100.971 260.75 100.488C260.56 100.004 260.259 99.6309 259.849 99.3672C259.439 99.0889 258.89 98.9497 258.201 98.9497C257.645 98.9497 257.168 99.0449 256.773 99.2354C256.377 99.4258 256.077 99.7114 255.872 100.092C255.667 100.473 255.564 100.957 255.564 101.542H248.16C248.16 100.444 248.401 99.4258 248.885 98.4883C249.383 97.5361 250.086 96.7085 250.994 96.0054C251.917 95.3022 253.016 94.7603 254.29 94.3794C255.579 93.9839 257.015 93.7861 258.597 93.7861C260.486 93.7861 262.171 94.1011 263.65 94.731C265.145 95.3608 266.324 96.3057 267.188 97.5654C268.052 98.8105 268.484 100.378 268.484 102.268V112.001C268.484 113.554 268.572 114.733 268.748 115.539C268.924 116.33 269.173 117.026 269.495 117.626V118H262.068C261.717 117.268 261.453 116.374 261.277 115.319C261.116 114.25 261.036 113.151 261.036 112.023ZM261.937 103.476L261.98 107.431H258.707C258.018 107.431 257.432 107.526 256.949 107.717C256.48 107.907 256.099 108.171 255.806 108.508C255.528 108.83 255.323 109.196 255.191 109.606C255.074 110.017 255.015 110.449 255.015 110.903C255.015 111.342 255.118 111.738 255.323 112.089C255.542 112.426 255.835 112.69 256.202 112.88C256.568 113.071 256.978 113.166 257.432 113.166C258.252 113.166 258.948 113.012 259.52 112.705C260.105 112.382 260.552 111.994 260.86 111.54C261.167 111.086 261.321 110.661 261.321 110.266L262.947 113.298C262.654 113.884 262.317 114.477 261.937 115.078C261.57 115.678 261.109 116.235 260.552 116.748C260.01 117.246 259.344 117.656 258.553 117.978C257.762 118.286 256.802 118.439 255.674 118.439C254.209 118.439 252.862 118.139 251.631 117.539C250.416 116.938 249.441 116.103 248.709 115.034C247.977 113.95 247.61 112.705 247.61 111.298C247.61 110.068 247.83 108.969 248.27 108.002C248.724 107.036 249.405 106.215 250.313 105.542C251.221 104.868 252.378 104.355 253.785 104.003C255.191 103.652 256.846 103.476 258.75 103.476H261.937ZM282.635 112.727C283.323 112.727 283.909 112.602 284.393 112.353C284.891 112.089 285.264 111.723 285.513 111.254C285.777 110.771 285.901 110.192 285.887 109.519H292.852C292.867 111.306 292.427 112.873 291.534 114.221C290.655 115.554 289.454 116.594 287.93 117.341C286.421 118.073 284.715 118.439 282.811 118.439C280.95 118.439 279.324 118.139 277.933 117.539C276.541 116.923 275.376 116.074 274.439 114.99C273.516 113.891 272.82 112.609 272.352 111.145C271.897 109.68 271.67 108.09 271.67 106.376V105.871C271.67 104.157 271.897 102.568 272.352 101.103C272.82 99.6235 273.516 98.3418 274.439 97.2578C275.376 96.1592 276.534 95.3096 277.911 94.709C279.302 94.0938 280.921 93.7861 282.767 93.7861C284.744 93.7861 286.487 94.1597 287.996 94.9067C289.52 95.6538 290.713 96.7378 291.578 98.1587C292.442 99.5796 292.867 101.301 292.852 103.322H285.887C285.901 102.604 285.792 101.96 285.557 101.389C285.323 100.817 284.957 100.363 284.458 100.026C283.975 99.6748 283.353 99.499 282.591 99.499C281.829 99.499 281.214 99.6675 280.745 100.004C280.276 100.341 279.917 100.81 279.668 101.411C279.434 101.997 279.273 102.67 279.185 103.432C279.112 104.194 279.075 105.007 279.075 105.871V106.376C279.075 107.255 279.112 108.083 279.185 108.859C279.273 109.621 279.441 110.295 279.69 110.881C279.939 111.452 280.298 111.906 280.767 112.243C281.236 112.565 281.858 112.727 282.635 112.727ZM303.487 84.228V118H296.082V84.228H303.487ZM318.692 94.2256L308.365 106.333L302.959 111.738L299.729 107.036L304.234 101.169L309.815 94.2256H318.692ZM310.76 118L304.41 107.167L309.881 103.278L319.241 118H310.76Z" fill="#424241"/>
<path d="M1363 15C1363 6.71573 1356.28 0 1348 0H1134V167H1348C1356.28 167 1363 160.284 1363 152V15Z" fill="#3C429E"/>
<path fill-rule="evenodd" clip-rule="evenodd" d="M1218.5 55C1218.37 55 1218.24 55.0527 1218.15 55.1464C1218.05 55.2402 1218 55.3674 1218 55.5V111.5C1218 111.633 1218.05 111.76 1218.15 111.854C1218.24 111.947 1218.37 112 1218.5 112H1278C1278.13 112 1278.26 111.947 1278.35 111.854C1278.45 111.76 1278.5 111.633 1278.5 111.5V66C1278.5 65.8674 1278.45 65.7402 1278.35 65.6464C1278.26 65.5527 1278.13 65.5 1278 65.5H1248.25C1247.36 65.5 1246.52 65.1045 1245.95 64.4206L1238.09 55H1218.5ZM1213.9 50.9038C1215.12 49.6848 1216.78 49 1218.5 49H1239.5C1240.39 49 1241.23 49.3955 1241.8 50.0794L1249.66 59.5H1278C1279.72 59.5 1281.38 60.1848 1282.6 61.4038C1283.82 62.6228 1284.5 64.2761 1284.5 66V111.5C1284.5 113.224 1283.82 114.877 1282.6 116.096C1281.38 117.315 1279.72 118 1278 118H1218.5C1216.78 118 1215.12 117.315 1213.9 116.096C1212.68 114.877 1212 113.224 1212 111.5V55.5C1212 53.7761 1212.68 52.1228 1213.9 50.9038Z" fill="white"/>
<path fill-rule="evenodd" clip-rule="evenodd" d="M1243.72 77.5251C1245.09 78.892 1245.09 81.108 1243.72 82.4749L1237.45 88.75L1243.72 95.0251C1245.09 96.392 1245.09 98.608 1243.72 99.9749C1242.36 101.342 1240.14 101.342 1238.78 99.9749L1230.03 91.2249C1228.66 89.858 1228.66 87.642 1230.03 86.2751L1238.78 77.5251C1240.14 76.1583 1242.36 76.1583 1243.72 77.5251Z" fill="white"/>
<path fill-rule="evenodd" clip-rule="evenodd" d="M1252.03 99.9749C1250.66 98.608 1250.66 96.392 1252.03 95.0251L1258.3 88.75L1252.03 82.4749C1250.66 81.108 1250.66 78.892 1252.03 77.5251C1253.39 76.1583 1255.61 76.1583 1256.97 77.5251L1265.72 86.2751C1267.09 87.642 1267.09 89.858 1265.72 91.2249L1256.97 99.9749C1255.61 101.342 1253.39 101.342 1252.03 99.9749Z" fill="white"/>
</svg>
