<svg width="1363" height="167" viewBox="0 0 1363 167" fill="none" xmlns="http://www.w3.org/2000/svg">
<rect width="1363" height="167" rx="15" fill="#F0F0F0"/>
<path d="M0 15C0 6.71573 6.71573 0 15 0H37V167H15C6.71573 167 0 160.284 0 152V15Z" fill="#424241"/>
<path d="M100.906 54.9219L93.3945 52.2383V49.0859L103.602 53.375V55.6367L100.906 54.9219ZM93.3945 57.1719L100.918 54.4297L103.602 53.7852V56.0352L93.3945 60.3242V57.1719ZM120.781 57.5352C120.781 57.2305 120.734 56.957 120.641 56.7148C120.555 56.4648 120.391 56.2383 120.148 56.0352C119.906 55.8242 119.566 55.6172 119.129 55.4141C118.691 55.2109 118.125 55 117.43 54.7812C116.656 54.5312 115.922 54.25 115.227 53.9375C114.539 53.625 113.93 53.2617 113.398 52.8477C112.875 52.4258 112.461 51.9375 112.156 51.3828C111.859 50.8281 111.711 50.1836 111.711 49.4492C111.711 48.7383 111.867 48.0938 112.18 47.5156C112.492 46.9297 112.93 46.4297 113.492 46.0156C114.055 45.5938 114.719 45.2695 115.484 45.043C116.258 44.8164 117.105 44.7031 118.027 44.7031C119.285 44.7031 120.383 44.9297 121.32 45.3828C122.258 45.8359 122.984 46.457 123.5 47.2461C124.023 48.0352 124.285 48.9375 124.285 49.9531H120.793C120.793 49.4531 120.688 49.0156 120.477 48.6406C120.273 48.2578 119.961 47.957 119.539 47.7383C119.125 47.5195 118.602 47.4102 117.969 47.4102C117.359 47.4102 116.852 47.5039 116.445 47.6914C116.039 47.8711 115.734 48.1172 115.531 48.4297C115.328 48.7344 115.227 49.0781 115.227 49.4609C115.227 49.75 115.297 50.0117 115.438 50.2461C115.586 50.4805 115.805 50.6992 116.094 50.9023C116.383 51.1055 116.738 51.2969 117.16 51.4766C117.582 51.6562 118.07 51.832 118.625 52.0039C119.555 52.2852 120.371 52.6016 121.074 52.9531C121.785 53.3047 122.379 53.6992 122.855 54.1367C123.332 54.5742 123.691 55.0703 123.934 55.625C124.176 56.1797 124.297 56.8086 124.297 57.5117C124.297 58.2539 124.152 58.918 123.863 59.5039C123.574 60.0898 123.156 60.5859 122.609 60.9922C122.062 61.3984 121.41 61.707 120.652 61.918C119.895 62.1289 119.047 62.2344 118.109 62.2344C117.266 62.2344 116.434 62.125 115.613 61.9062C114.793 61.6797 114.047 61.3398 113.375 60.8867C112.711 60.4336 112.18 59.8555 111.781 59.1523C111.383 58.4492 111.184 57.6172 111.184 56.6562H114.711C114.711 57.1875 114.793 57.6367 114.957 58.0039C115.121 58.3711 115.352 58.668 115.648 58.8945C115.953 59.1211 116.312 59.2852 116.727 59.3867C117.148 59.4883 117.609 59.5391 118.109 59.5391C118.719 59.5391 119.219 59.4531 119.609 59.2812C120.008 59.1094 120.301 58.8711 120.488 58.5664C120.684 58.2617 120.781 57.918 120.781 57.5352ZM133.977 58.9648V49.3203H137.352V62H134.176L133.977 58.9648ZM134.352 56.3633L135.348 56.3398C135.348 57.1836 135.25 57.9688 135.055 58.6953C134.859 59.4141 134.566 60.0391 134.176 60.5703C133.785 61.0938 133.293 61.5039 132.699 61.8008C132.105 62.0898 131.406 62.2344 130.602 62.2344C129.984 62.2344 129.414 62.1484 128.891 61.9766C128.375 61.7969 127.93 61.5195 127.555 61.1445C127.188 60.7617 126.898 60.2734 126.688 59.6797C126.484 59.0781 126.383 58.3555 126.383 57.5117V49.3203H129.758V57.5352C129.758 57.9102 129.801 58.2266 129.887 58.4844C129.98 58.7422 130.109 58.9531 130.273 59.1172C130.438 59.2812 130.629 59.3984 130.848 59.4688C131.074 59.5391 131.324 59.5742 131.598 59.5742C132.293 59.5742 132.84 59.4336 133.238 59.1523C133.645 58.8711 133.93 58.4883 134.094 58.0039C134.266 57.5117 134.352 56.9648 134.352 56.3633ZM143.305 51.7578V66.875H139.93V49.3203H143.059L143.305 51.7578ZM151.332 55.5195V55.7656C151.332 56.6875 151.223 57.543 151.004 58.332C150.793 59.1211 150.48 59.8086 150.066 60.3945C149.652 60.9727 149.137 61.4258 148.52 61.7539C147.91 62.0742 147.207 62.2344 146.41 62.2344C145.637 62.2344 144.965 62.0781 144.395 61.7656C143.824 61.4531 143.344 61.0156 142.953 60.4531C142.57 59.8828 142.262 59.2227 142.027 58.4727C141.793 57.7227 141.613 56.918 141.488 56.0586V55.4141C141.613 54.4922 141.793 53.6484 142.027 52.8828C142.262 52.1094 142.57 51.4414 142.953 50.8789C143.344 50.3086 143.82 49.8672 144.383 49.5547C144.953 49.2422 145.621 49.0859 146.387 49.0859C147.191 49.0859 147.898 49.2383 148.508 49.543C149.125 49.8477 149.641 50.2852 150.055 50.8555C150.477 51.4258 150.793 52.1055 151.004 52.8945C151.223 53.6836 151.332 54.5586 151.332 55.5195ZM147.945 55.7656V55.5195C147.945 54.9805 147.898 54.4844 147.805 54.0312C147.719 53.5703 147.578 53.168 147.383 52.8242C147.195 52.4805 146.945 52.2148 146.633 52.0273C146.328 51.832 145.957 51.7344 145.52 51.7344C145.059 51.7344 144.664 51.8086 144.336 51.957C144.016 52.1055 143.754 52.3203 143.551 52.6016C143.348 52.8828 143.195 53.2188 143.094 53.6094C142.992 54 142.93 54.4414 142.906 54.9336V56.5625C142.945 57.1406 143.055 57.6602 143.234 58.1211C143.414 58.5742 143.691 58.9336 144.066 59.1992C144.441 59.4648 144.934 59.5977 145.543 59.5977C145.988 59.5977 146.363 59.5 146.668 59.3047C146.973 59.1016 147.219 58.8242 147.406 58.4727C147.602 58.1211 147.738 57.7148 147.816 57.2539C147.902 56.793 147.945 56.2969 147.945 55.7656ZM156.805 51.7578V66.875H153.43V49.3203H156.559L156.805 51.7578ZM164.832 55.5195V55.7656C164.832 56.6875 164.723 57.543 164.504 58.332C164.293 59.1211 163.98 59.8086 163.566 60.3945C163.152 60.9727 162.637 61.4258 162.02 61.7539C161.41 62.0742 160.707 62.2344 159.91 62.2344C159.137 62.2344 158.465 62.0781 157.895 61.7656C157.324 61.4531 156.844 61.0156 156.453 60.4531C156.07 59.8828 155.762 59.2227 155.527 58.4727C155.293 57.7227 155.113 56.918 154.988 56.0586V55.4141C155.113 54.4922 155.293 53.6484 155.527 52.8828C155.762 52.1094 156.07 51.4414 156.453 50.8789C156.844 50.3086 157.32 49.8672 157.883 49.5547C158.453 49.2422 159.121 49.0859 159.887 49.0859C160.691 49.0859 161.398 49.2383 162.008 49.543C162.625 49.8477 163.141 50.2852 163.555 50.8555C163.977 51.4258 164.293 52.1055 164.504 52.8945C164.723 53.6836 164.832 54.5586 164.832 55.5195ZM161.445 55.7656V55.5195C161.445 54.9805 161.398 54.4844 161.305 54.0312C161.219 53.5703 161.078 53.168 160.883 52.8242C160.695 52.4805 160.445 52.2148 160.133 52.0273C159.828 51.832 159.457 51.7344 159.02 51.7344C158.559 51.7344 158.164 51.8086 157.836 51.957C157.516 52.1055 157.254 52.3203 157.051 52.6016C156.848 52.8828 156.695 53.2188 156.594 53.6094C156.492 54 156.43 54.4414 156.406 54.9336V56.5625C156.445 57.1406 156.555 57.6602 156.734 58.1211C156.914 58.5742 157.191 58.9336 157.566 59.1992C157.941 59.4648 158.434 59.5977 159.043 59.5977C159.488 59.5977 159.863 59.5 160.168 59.3047C160.473 59.1016 160.719 58.8242 160.906 58.4727C161.102 58.1211 161.238 57.7148 161.316 57.2539C161.402 56.793 161.445 56.2969 161.445 55.7656ZM166.391 55.7891V55.543C166.391 54.6133 166.523 53.7578 166.789 52.9766C167.055 52.1875 167.441 51.5039 167.949 50.9258C168.457 50.3477 169.082 49.8984 169.824 49.5781C170.566 49.25 171.418 49.0859 172.379 49.0859C173.34 49.0859 174.195 49.25 174.945 49.5781C175.695 49.8984 176.324 50.3477 176.832 50.9258C177.348 51.5039 177.738 52.1875 178.004 52.9766C178.27 53.7578 178.402 54.6133 178.402 55.543V55.7891C178.402 56.7109 178.27 57.5664 178.004 58.3555C177.738 59.1367 177.348 59.8203 176.832 60.4062C176.324 60.9844 175.699 61.4336 174.957 61.7539C174.215 62.0742 173.363 62.2344 172.402 62.2344C171.441 62.2344 170.586 62.0742 169.836 61.7539C169.094 61.4336 168.465 60.9844 167.949 60.4062C167.441 59.8203 167.055 59.1367 166.789 58.3555C166.523 57.5664 166.391 56.7109 166.391 55.7891ZM169.766 55.543V55.7891C169.766 56.3203 169.812 56.8164 169.906 57.2773C170 57.7383 170.148 58.1445 170.352 58.4961C170.562 58.8398 170.836 59.1094 171.172 59.3047C171.508 59.5 171.918 59.5977 172.402 59.5977C172.871 59.5977 173.273 59.5 173.609 59.3047C173.945 59.1094 174.215 58.8398 174.418 58.4961C174.621 58.1445 174.77 57.7383 174.863 57.2773C174.965 56.8164 175.016 56.3203 175.016 55.7891V55.543C175.016 55.0273 174.965 54.543 174.863 54.0898C174.77 53.6289 174.617 53.2227 174.406 52.8711C174.203 52.5117 173.934 52.2305 173.598 52.0273C173.262 51.8242 172.855 51.7227 172.379 51.7227C171.902 51.7227 171.496 51.8242 171.16 52.0273C170.832 52.2305 170.562 52.5117 170.352 52.8711C170.148 53.2227 170 53.6289 169.906 54.0898C169.812 54.543 169.766 55.0273 169.766 55.543ZM183.852 52.0859V62H180.477V49.3203H183.652L183.852 52.0859ZM187.672 49.2383L187.613 52.3672C187.449 52.3438 187.25 52.3242 187.016 52.3086C186.789 52.2852 186.582 52.2734 186.395 52.2734C185.918 52.2734 185.504 52.3359 185.152 52.4609C184.809 52.5781 184.52 52.7539 184.285 52.9883C184.059 53.2227 183.887 53.5078 183.77 53.8438C183.66 54.1797 183.598 54.5625 183.582 54.9922L182.902 54.7812C182.902 53.9609 182.984 53.207 183.148 52.5195C183.312 51.8242 183.551 51.2188 183.863 50.7031C184.184 50.1875 184.574 49.7891 185.035 49.5078C185.496 49.2266 186.023 49.0859 186.617 49.0859C186.805 49.0859 186.996 49.1016 187.191 49.1328C187.387 49.1562 187.547 49.1914 187.672 49.2383ZM196.062 49.3203V51.7109H188.68V49.3203H196.062ZM190.508 46.1914H193.883V58.1797C193.883 58.5469 193.93 58.8281 194.023 59.0234C194.125 59.2188 194.273 59.3555 194.469 59.4336C194.664 59.5039 194.91 59.5391 195.207 59.5391C195.418 59.5391 195.605 59.5312 195.77 59.5156C195.941 59.4922 196.086 59.4688 196.203 59.4453L196.215 61.9297C195.926 62.0234 195.613 62.0977 195.277 62.1523C194.941 62.207 194.57 62.2344 194.164 62.2344C193.422 62.2344 192.773 62.1133 192.219 61.8711C191.672 61.6211 191.25 61.2227 190.953 60.6758C190.656 60.1289 190.508 59.4102 190.508 58.5195V46.1914Z" fill="#888888"/>
<path d="M102.635 86.0078V118H94.9443V86.0078H102.635ZM115.181 99.2573V118H107.776V94.2256H114.72L115.181 99.2573ZM114.28 105.3L112.588 105.344C112.588 103.674 112.786 102.136 113.182 100.729C113.577 99.3232 114.163 98.1001 114.939 97.0601C115.716 96.02 116.668 95.2144 117.796 94.6431C118.938 94.0718 120.257 93.7861 121.751 93.7861C122.791 93.7861 123.736 93.9473 124.585 94.2695C125.435 94.5771 126.167 95.0679 126.783 95.7417C127.398 96.4009 127.867 97.2651 128.189 98.3345C128.526 99.3892 128.694 100.656 128.694 102.136V118H121.29V103.081C121.29 102.07 121.172 101.308 120.938 100.795C120.718 100.283 120.396 99.9385 119.971 99.7627C119.546 99.5869 119.026 99.499 118.411 99.499C117.767 99.499 117.188 99.6455 116.675 99.9385C116.163 100.231 115.723 100.642 115.357 101.169C115.005 101.682 114.734 102.29 114.544 102.993C114.368 103.696 114.28 104.465 114.28 105.3ZM127.859 105.3L125.794 105.344C125.794 103.674 125.977 102.136 126.343 100.729C126.724 99.3232 127.288 98.1001 128.035 97.0601C128.797 96.02 129.742 95.2144 130.87 94.6431C131.998 94.0718 133.309 93.7861 134.803 93.7861C135.887 93.7861 136.883 93.9473 137.791 94.2695C138.699 94.5918 139.483 95.1118 140.142 95.8296C140.801 96.5474 141.314 97.4995 141.68 98.686C142.046 99.8579 142.229 101.308 142.229 103.037V118H134.803V103.037C134.803 102.055 134.686 101.315 134.451 100.817C134.231 100.305 133.909 99.9604 133.484 99.7847C133.06 99.5942 132.554 99.499 131.968 99.499C131.265 99.499 130.657 99.6455 130.145 99.9385C129.632 100.231 129.2 100.642 128.848 101.169C128.511 101.682 128.262 102.29 128.101 102.993C127.94 103.696 127.859 104.465 127.859 105.3ZM153.941 98.7959V127.141H146.536V94.2256H153.436L153.941 98.7959ZM168.531 105.827V106.289C168.531 108.017 168.333 109.621 167.938 111.101C167.542 112.58 166.956 113.869 166.18 114.968C165.403 116.066 164.437 116.923 163.279 117.539C162.137 118.139 160.811 118.439 159.302 118.439C157.881 118.439 156.658 118.125 155.633 117.495C154.607 116.865 153.75 115.993 153.062 114.88C152.374 113.767 151.817 112.492 151.392 111.057C150.967 109.621 150.63 108.105 150.381 106.508V105.915C150.63 104.201 150.967 102.612 151.392 101.147C151.817 99.6675 152.374 98.3784 153.062 97.2798C153.75 96.1812 154.6 95.3242 155.611 94.709C156.636 94.0938 157.859 93.7861 159.28 93.7861C160.789 93.7861 162.115 94.0718 163.257 94.6431C164.415 95.2144 165.381 96.0347 166.158 97.104C166.949 98.1587 167.542 99.4258 167.938 100.905C168.333 102.385 168.531 104.025 168.531 105.827ZM161.126 106.289V105.827C161.126 104.904 161.06 104.062 160.928 103.3C160.796 102.524 160.584 101.85 160.291 101.279C160.013 100.708 159.639 100.268 159.17 99.9604C158.702 99.6528 158.123 99.499 157.435 99.499C156.644 99.499 155.977 99.6235 155.435 99.8726C154.908 100.107 154.483 100.473 154.161 100.971C153.853 101.455 153.633 102.062 153.501 102.795C153.384 103.513 153.333 104.355 153.348 105.322V107.124C153.318 108.237 153.428 109.218 153.677 110.068C153.926 110.903 154.358 111.555 154.974 112.023C155.589 112.492 156.424 112.727 157.479 112.727C158.182 112.727 158.768 112.565 159.236 112.243C159.705 111.906 160.079 111.445 160.357 110.859C160.635 110.258 160.833 109.57 160.95 108.793C161.067 108.017 161.126 107.182 161.126 106.289ZM179.649 84.25V118H172.222V84.25H179.649ZM195.733 118.439C193.799 118.439 192.071 118.139 190.547 117.539C189.024 116.923 187.735 116.081 186.68 115.012C185.64 113.942 184.842 112.712 184.285 111.32C183.743 109.929 183.472 108.457 183.472 106.904V106.069C183.472 104.326 183.714 102.714 184.197 101.235C184.681 99.7407 185.398 98.437 186.351 97.3237C187.303 96.2104 188.497 95.3462 189.932 94.731C191.368 94.1011 193.038 93.7861 194.942 93.7861C196.626 93.7861 198.135 94.0571 199.468 94.5991C200.801 95.1411 201.929 95.9175 202.852 96.9282C203.79 97.939 204.5 99.1621 204.983 100.598C205.481 102.033 205.73 103.645 205.73 105.432V108.442H186.307V103.806H198.501V103.234C198.516 102.443 198.377 101.77 198.084 101.213C197.806 100.656 197.396 100.231 196.854 99.9385C196.312 99.6455 195.652 99.499 194.876 99.499C194.07 99.499 193.404 99.6748 192.876 100.026C192.364 100.378 191.961 100.861 191.668 101.477C191.39 102.077 191.192 102.773 191.075 103.564C190.958 104.355 190.899 105.19 190.899 106.069V106.904C190.899 107.783 191.016 108.581 191.25 109.299C191.5 110.017 191.851 110.632 192.305 111.145C192.774 111.643 193.331 112.031 193.975 112.309C194.634 112.587 195.381 112.727 196.216 112.727C197.227 112.727 198.223 112.536 199.205 112.155C200.186 111.774 201.028 111.145 201.731 110.266L205.093 114.265C204.61 114.953 203.921 115.62 203.028 116.264C202.149 116.909 201.094 117.436 199.864 117.846C198.633 118.242 197.256 118.439 195.733 118.439ZM216.211 99.2573V118H208.807V94.2256H215.75L216.211 99.2573ZM215.311 105.3L213.619 105.344C213.619 103.674 213.816 102.136 214.212 100.729C214.607 99.3232 215.193 98.1001 215.97 97.0601C216.746 96.02 217.698 95.2144 218.826 94.6431C219.969 94.0718 221.287 93.7861 222.781 93.7861C223.821 93.7861 224.766 93.9473 225.616 94.2695C226.465 94.5771 227.198 95.0679 227.813 95.7417C228.428 96.4009 228.897 97.2651 229.219 98.3345C229.556 99.3892 229.725 100.656 229.725 102.136V118H222.32V103.081C222.32 102.07 222.203 101.308 221.968 100.795C221.749 100.283 221.426 99.9385 221.001 99.7627C220.577 99.5869 220.057 99.499 219.441 99.499C218.797 99.499 218.218 99.6455 217.706 99.9385C217.193 100.231 216.753 100.642 216.387 101.169C216.036 101.682 215.765 102.29 215.574 102.993C215.398 103.696 215.311 104.465 215.311 105.3ZM228.89 105.3L226.824 105.344C226.824 103.674 227.007 102.136 227.374 100.729C227.754 99.3232 228.318 98.1001 229.065 97.0601C229.827 96.02 230.772 95.2144 231.9 94.6431C233.028 94.0718 234.339 93.7861 235.833 93.7861C236.917 93.7861 237.913 93.9473 238.821 94.2695C239.729 94.5918 240.513 95.1118 241.172 95.8296C241.832 96.5474 242.344 97.4995 242.71 98.686C243.077 99.8579 243.26 101.308 243.26 103.037V118H235.833V103.037C235.833 102.055 235.716 101.315 235.481 100.817C235.262 100.305 234.939 99.9604 234.515 99.7847C234.09 99.5942 233.584 99.499 232.999 99.499C232.295 99.499 231.688 99.6455 231.175 99.9385C230.662 100.231 230.23 100.642 229.878 101.169C229.542 101.682 229.292 102.29 229.131 102.993C228.97 103.696 228.89 104.465 228.89 105.3ZM259.014 118.439C257.081 118.439 255.352 118.139 253.829 117.539C252.305 116.923 251.016 116.081 249.961 115.012C248.921 113.942 248.123 112.712 247.566 111.32C247.024 109.929 246.753 108.457 246.753 106.904V106.069C246.753 104.326 246.995 102.714 247.479 101.235C247.962 99.7407 248.68 98.437 249.632 97.3237C250.584 96.2104 251.778 95.3462 253.213 94.731C254.649 94.1011 256.319 93.7861 258.223 93.7861C259.908 93.7861 261.417 94.0571 262.75 94.5991C264.083 95.1411 265.21 95.9175 266.133 96.9282C267.071 97.939 267.781 99.1621 268.265 100.598C268.763 102.033 269.012 103.645 269.012 105.432V108.442H249.588V103.806H261.783V103.234C261.797 102.443 261.658 101.77 261.365 101.213C261.087 100.656 260.677 100.231 260.135 99.9385C259.593 99.6455 258.934 99.499 258.157 99.499C257.352 99.499 256.685 99.6748 256.158 100.026C255.645 100.378 255.242 100.861 254.949 101.477C254.671 102.077 254.473 102.773 254.356 103.564C254.239 104.355 254.18 105.19 254.18 106.069V106.904C254.18 107.783 254.297 108.581 254.532 109.299C254.781 110.017 255.132 110.632 255.586 111.145C256.055 111.643 256.612 112.031 257.256 112.309C257.916 112.587 258.663 112.727 259.498 112.727C260.508 112.727 261.504 112.536 262.486 112.155C263.467 111.774 264.31 111.145 265.013 110.266L268.375 114.265C267.891 114.953 267.203 115.62 266.309 116.264C265.43 116.909 264.375 117.436 263.145 117.846C261.915 118.242 260.538 118.439 259.014 118.439ZM279.295 99.3013V118H271.89V94.2256H278.833L279.295 99.3013ZM278.416 105.3L276.68 105.344C276.68 103.527 276.9 101.909 277.339 100.488C277.779 99.0522 278.401 97.8364 279.207 96.8403C280.013 95.8442 280.972 95.0898 282.085 94.5771C283.213 94.0498 284.466 93.7861 285.843 93.7861C286.941 93.7861 287.945 93.9473 288.853 94.2695C289.776 94.5918 290.567 95.1118 291.226 95.8296C291.9 96.5474 292.413 97.4995 292.764 98.686C293.13 99.8579 293.313 101.308 293.313 103.037V118H285.865V103.015C285.865 102.062 285.733 101.337 285.469 100.839C285.206 100.327 284.825 99.9751 284.327 99.7847C283.829 99.5942 283.221 99.499 282.503 99.499C281.741 99.499 281.097 99.6455 280.569 99.9385C280.042 100.231 279.617 100.642 279.295 101.169C278.987 101.682 278.76 102.29 278.614 102.993C278.482 103.696 278.416 104.465 278.416 105.3ZM309.947 94.2256V99.3672H295.621V94.2256H309.947ZM298.631 88.3149H306.036V110.244C306.036 110.874 306.109 111.364 306.255 111.716C306.402 112.053 306.651 112.294 307.002 112.441C307.369 112.573 307.852 112.639 308.453 112.639C308.877 112.639 309.229 112.631 309.507 112.617C309.786 112.587 310.049 112.551 310.298 112.507V117.802C309.668 118.007 309.009 118.161 308.321 118.264C307.632 118.381 306.9 118.439 306.124 118.439C304.542 118.439 303.187 118.19 302.059 117.692C300.945 117.194 300.096 116.411 299.51 115.341C298.924 114.272 298.631 112.88 298.631 111.167V88.3149ZM325.24 112.023V102.224C325.24 101.55 325.145 100.971 324.954 100.488C324.764 100.004 324.463 99.6309 324.053 99.3672C323.643 99.0889 323.094 98.9497 322.405 98.9497C321.849 98.9497 321.373 99.0449 320.977 99.2354C320.582 99.4258 320.281 99.7114 320.076 100.092C319.871 100.473 319.769 100.957 319.769 101.542H312.364C312.364 100.444 312.605 99.4258 313.089 98.4883C313.587 97.5361 314.29 96.7085 315.198 96.0054C316.121 95.3022 317.22 94.7603 318.494 94.3794C319.783 93.9839 321.219 93.7861 322.801 93.7861C324.69 93.7861 326.375 94.1011 327.854 94.731C329.349 95.3608 330.528 96.3057 331.392 97.5654C332.256 98.8105 332.688 100.378 332.688 102.268V112.001C332.688 113.554 332.776 114.733 332.952 115.539C333.128 116.33 333.377 117.026 333.699 117.626V118H326.272C325.921 117.268 325.657 116.374 325.481 115.319C325.32 114.25 325.24 113.151 325.24 112.023ZM326.141 103.476L326.185 107.431H322.911C322.222 107.431 321.636 107.526 321.153 107.717C320.684 107.907 320.303 108.171 320.01 108.508C319.732 108.83 319.527 109.196 319.395 109.606C319.278 110.017 319.219 110.449 319.219 110.903C319.219 111.342 319.322 111.738 319.527 112.089C319.747 112.426 320.04 112.69 320.406 112.88C320.772 113.071 321.182 113.166 321.636 113.166C322.457 113.166 323.152 113.012 323.724 112.705C324.31 112.382 324.756 111.994 325.064 111.54C325.372 111.086 325.525 110.661 325.525 110.266L327.151 113.298C326.858 113.884 326.521 114.477 326.141 115.078C325.774 115.678 325.313 116.235 324.756 116.748C324.214 117.246 323.548 117.656 322.757 117.978C321.966 118.286 321.006 118.439 319.878 118.439C318.414 118.439 317.066 118.139 315.835 117.539C314.62 116.938 313.646 116.103 312.913 115.034C312.181 113.95 311.814 112.705 311.814 111.298C311.814 110.068 312.034 108.969 312.474 108.002C312.928 107.036 313.609 106.215 314.517 105.542C315.425 104.868 316.583 104.355 317.989 104.003C319.395 103.652 321.05 103.476 322.955 103.476H326.141ZM349.322 94.2256V99.3672H334.996V94.2256H349.322ZM338.006 88.3149H345.411V110.244C345.411 110.874 345.484 111.364 345.63 111.716C345.777 112.053 346.026 112.294 346.377 112.441C346.744 112.573 347.227 112.639 347.828 112.639C348.252 112.639 348.604 112.631 348.882 112.617C349.161 112.587 349.424 112.551 349.673 112.507V117.802C349.043 118.007 348.384 118.161 347.696 118.264C347.007 118.381 346.275 118.439 345.499 118.439C343.917 118.439 342.562 118.19 341.434 117.692C340.32 117.194 339.471 116.411 338.885 115.341C338.299 114.272 338.006 112.88 338.006 111.167V88.3149ZM360.088 94.2256V118H352.662V94.2256H360.088ZM352.222 88.0952C352.222 87.0405 352.603 86.1763 353.365 85.5024C354.126 84.8286 355.115 84.4917 356.331 84.4917C357.547 84.4917 358.536 84.8286 359.297 85.5024C360.059 86.1763 360.44 87.0405 360.44 88.0952C360.44 89.1499 360.059 90.0142 359.297 90.688C358.536 91.3618 357.547 91.6987 356.331 91.6987C355.115 91.6987 354.126 91.3618 353.365 90.688C352.603 90.0142 352.222 89.1499 352.222 88.0952ZM363.736 106.354V105.893C363.736 104.15 363.985 102.546 364.483 101.081C364.981 99.6016 365.713 98.3198 366.68 97.2358C367.647 96.1519 368.841 95.3096 370.262 94.709C371.683 94.0938 373.323 93.7861 375.184 93.7861C377.059 93.7861 378.707 94.0938 380.127 94.709C381.563 95.3096 382.764 96.1519 383.731 97.2358C384.698 98.3198 385.43 99.6016 385.928 101.081C386.426 102.546 386.675 104.15 386.675 105.893V106.354C386.675 108.083 386.426 109.687 385.928 111.167C385.43 112.631 384.698 113.913 383.731 115.012C382.764 116.096 381.57 116.938 380.149 117.539C378.729 118.139 377.088 118.439 375.228 118.439C373.367 118.439 371.719 118.139 370.284 117.539C368.848 116.938 367.647 116.096 366.68 115.012C365.713 113.913 364.981 112.631 364.483 111.167C363.985 109.687 363.736 108.083 363.736 106.354ZM371.141 105.893V106.354C371.141 107.248 371.207 108.083 371.338 108.859C371.47 109.636 371.69 110.317 371.998 110.903C372.305 111.474 372.723 111.921 373.25 112.243C373.777 112.565 374.437 112.727 375.228 112.727C376.004 112.727 376.648 112.565 377.161 112.243C377.688 111.921 378.106 111.474 378.414 110.903C378.721 110.317 378.941 109.636 379.073 108.859C379.205 108.083 379.271 107.248 379.271 106.354V105.893C379.271 105.029 379.205 104.216 379.073 103.454C378.941 102.678 378.721 101.997 378.414 101.411C378.106 100.81 377.688 100.341 377.161 100.004C376.634 99.6675 375.975 99.499 375.184 99.499C374.407 99.499 373.755 99.6675 373.228 100.004C372.715 100.341 372.305 100.81 371.998 101.411C371.69 101.997 371.47 102.678 371.338 103.454C371.207 104.216 371.141 105.029 371.141 105.893ZM397.244 99.3013V118H389.839V94.2256H396.783L397.244 99.3013ZM396.365 105.3L394.629 105.344C394.629 103.527 394.849 101.909 395.289 100.488C395.728 99.0522 396.351 97.8364 397.156 96.8403C397.962 95.8442 398.921 95.0898 400.035 94.5771C401.163 94.0498 402.415 93.7861 403.792 93.7861C404.891 93.7861 405.894 93.9473 406.802 94.2695C407.725 94.5918 408.516 95.1118 409.175 95.8296C409.849 96.5474 410.362 97.4995 410.713 98.686C411.08 99.8579 411.263 101.308 411.263 103.037V118H403.814V103.015C403.814 102.062 403.682 101.337 403.418 100.839C403.155 100.327 402.774 99.9751 402.276 99.7847C401.778 99.5942 401.17 99.499 400.452 99.499C399.69 99.499 399.046 99.6455 398.519 99.9385C397.991 100.231 397.566 100.642 397.244 101.169C396.937 101.682 396.709 102.29 396.563 102.993C396.431 103.696 396.365 104.465 396.365 105.3Z" fill="#424241"/>
<path d="M1363 15C1363 6.71573 1356.28 0 1348 0H1134V167H1348C1356.28 167 1363 160.284 1363 152V15Z" fill="#3C429E"/>
<path d="M1281.5 49H1216.5L1214 51.5V116.5L1216.5 119H1281.5L1284 116.5V51.5L1281.5 49ZM1279 114H1234V104H1245.5C1247 107 1250.5 109 1254 109C1259.5 109 1264 104.5 1264 99C1264 93.5 1259.5 89 1254 89C1248.5 89 1244 93.5 1244 99H1229V114H1219V54H1229V65.5C1226 67 1224 70.5 1224 74C1224 79.5 1228.5 84 1234 84C1239.5 84 1244 79.5 1244 74H1254C1254 79.5 1258.5 84 1264 84C1269.5 84 1274 79.5 1274 74C1274 68.5 1269.5 64 1264 64C1260.5 64 1257 66 1255.5 69H1242.5C1241 66 1237.5 64 1234 64V54H1279V114ZM1249 99C1249 96 1251 94 1254 94C1257 94 1259 96 1259 99C1259 102 1257 104 1254 104C1251 104 1249 102 1249 99ZM1234 69C1237 69 1239 71 1239 74C1239 77 1237 79 1234 79C1231 79 1229 77 1229 74C1229 71 1231 69 1234 69ZM1264 69C1267 69 1269 71 1269 74C1269 77 1267 79 1264 79C1261 79 1259 77 1259 74C1259 71 1261 69 1264 69Z" fill="white"/>
</svg>
