<svg width="1363" height="167" viewBox="0 0 1363 167" fill="none" xmlns="http://www.w3.org/2000/svg">
<rect width="1363" height="167" rx="15" fill="#F0F0F0"/>
<path d="M0 15C0 6.71573 6.71573 0 15 0H37V167H15C6.71573 167 0 160.284 0 152V15Z" fill="#424241"/>
<path d="M100.906 54.9219L93.3945 52.2383V49.0859L103.602 53.375V55.6367L100.906 54.9219ZM93.3945 57.1719L100.918 54.4297L103.602 53.7852V56.0352L93.3945 60.3242V57.1719ZM120.781 57.5352C120.781 57.2305 120.734 56.957 120.641 56.7148C120.555 56.4648 120.391 56.2383 120.148 56.0352C119.906 55.8242 119.566 55.6172 119.129 55.4141C118.691 55.2109 118.125 55 117.43 54.7812C116.656 54.5312 115.922 54.25 115.227 53.9375C114.539 53.625 113.93 53.2617 113.398 52.8477C112.875 52.4258 112.461 51.9375 112.156 51.3828C111.859 50.8281 111.711 50.1836 111.711 49.4492C111.711 48.7383 111.867 48.0938 112.18 47.5156C112.492 46.9297 112.93 46.4297 113.492 46.0156C114.055 45.5938 114.719 45.2695 115.484 45.043C116.258 44.8164 117.105 44.7031 118.027 44.7031C119.285 44.7031 120.383 44.9297 121.32 45.3828C122.258 45.8359 122.984 46.457 123.5 47.2461C124.023 48.0352 124.285 48.9375 124.285 49.9531H120.793C120.793 49.4531 120.688 49.0156 120.477 48.6406C120.273 48.2578 119.961 47.957 119.539 47.7383C119.125 47.5195 118.602 47.4102 117.969 47.4102C117.359 47.4102 116.852 47.5039 116.445 47.6914C116.039 47.8711 115.734 48.1172 115.531 48.4297C115.328 48.7344 115.227 49.0781 115.227 49.4609C115.227 49.75 115.297 50.0117 115.438 50.2461C115.586 50.4805 115.805 50.6992 116.094 50.9023C116.383 51.1055 116.738 51.2969 117.16 51.4766C117.582 51.6562 118.07 51.832 118.625 52.0039C119.555 52.2852 120.371 52.6016 121.074 52.9531C121.785 53.3047 122.379 53.6992 122.855 54.1367C123.332 54.5742 123.691 55.0703 123.934 55.625C124.176 56.1797 124.297 56.8086 124.297 57.5117C124.297 58.2539 124.152 58.918 123.863 59.5039C123.574 60.0898 123.156 60.5859 122.609 60.9922C122.062 61.3984 121.41 61.707 120.652 61.918C119.895 62.1289 119.047 62.2344 118.109 62.2344C117.266 62.2344 116.434 62.125 115.613 61.9062C114.793 61.6797 114.047 61.3398 113.375 60.8867C112.711 60.4336 112.18 59.8555 111.781 59.1523C111.383 58.4492 111.184 57.6172 111.184 56.6562H114.711C114.711 57.1875 114.793 57.6367 114.957 58.0039C115.121 58.3711 115.352 58.668 115.648 58.8945C115.953 59.1211 116.312 59.2852 116.727 59.3867C117.148 59.4883 117.609 59.5391 118.109 59.5391C118.719 59.5391 119.219 59.4531 119.609 59.2812C120.008 59.1094 120.301 58.8711 120.488 58.5664C120.684 58.2617 120.781 57.918 120.781 57.5352ZM133.977 58.9648V49.3203H137.352V62H134.176L133.977 58.9648ZM134.352 56.3633L135.348 56.3398C135.348 57.1836 135.25 57.9688 135.055 58.6953C134.859 59.4141 134.566 60.0391 134.176 60.5703C133.785 61.0938 133.293 61.5039 132.699 61.8008C132.105 62.0898 131.406 62.2344 130.602 62.2344C129.984 62.2344 129.414 62.1484 128.891 61.9766C128.375 61.7969 127.93 61.5195 127.555 61.1445C127.188 60.7617 126.898 60.2734 126.688 59.6797C126.484 59.0781 126.383 58.3555 126.383 57.5117V49.3203H129.758V57.5352C129.758 57.9102 129.801 58.2266 129.887 58.4844C129.98 58.7422 130.109 58.9531 130.273 59.1172C130.438 59.2812 130.629 59.3984 130.848 59.4688C131.074 59.5391 131.324 59.5742 131.598 59.5742C132.293 59.5742 132.84 59.4336 133.238 59.1523C133.645 58.8711 133.93 58.4883 134.094 58.0039C134.266 57.5117 134.352 56.9648 134.352 56.3633ZM143.305 51.7578V66.875H139.93V49.3203H143.059L143.305 51.7578ZM151.332 55.5195V55.7656C151.332 56.6875 151.223 57.543 151.004 58.332C150.793 59.1211 150.48 59.8086 150.066 60.3945C149.652 60.9727 149.137 61.4258 148.52 61.7539C147.91 62.0742 147.207 62.2344 146.41 62.2344C145.637 62.2344 144.965 62.0781 144.395 61.7656C143.824 61.4531 143.344 61.0156 142.953 60.4531C142.57 59.8828 142.262 59.2227 142.027 58.4727C141.793 57.7227 141.613 56.918 141.488 56.0586V55.4141C141.613 54.4922 141.793 53.6484 142.027 52.8828C142.262 52.1094 142.57 51.4414 142.953 50.8789C143.344 50.3086 143.82 49.8672 144.383 49.5547C144.953 49.2422 145.621 49.0859 146.387 49.0859C147.191 49.0859 147.898 49.2383 148.508 49.543C149.125 49.8477 149.641 50.2852 150.055 50.8555C150.477 51.4258 150.793 52.1055 151.004 52.8945C151.223 53.6836 151.332 54.5586 151.332 55.5195ZM147.945 55.7656V55.5195C147.945 54.9805 147.898 54.4844 147.805 54.0312C147.719 53.5703 147.578 53.168 147.383 52.8242C147.195 52.4805 146.945 52.2148 146.633 52.0273C146.328 51.832 145.957 51.7344 145.52 51.7344C145.059 51.7344 144.664 51.8086 144.336 51.957C144.016 52.1055 143.754 52.3203 143.551 52.6016C143.348 52.8828 143.195 53.2188 143.094 53.6094C142.992 54 142.93 54.4414 142.906 54.9336V56.5625C142.945 57.1406 143.055 57.6602 143.234 58.1211C143.414 58.5742 143.691 58.9336 144.066 59.1992C144.441 59.4648 144.934 59.5977 145.543 59.5977C145.988 59.5977 146.363 59.5 146.668 59.3047C146.973 59.1016 147.219 58.8242 147.406 58.4727C147.602 58.1211 147.738 57.7148 147.816 57.2539C147.902 56.793 147.945 56.2969 147.945 55.7656ZM156.805 51.7578V66.875H153.43V49.3203H156.559L156.805 51.7578ZM164.832 55.5195V55.7656C164.832 56.6875 164.723 57.543 164.504 58.332C164.293 59.1211 163.98 59.8086 163.566 60.3945C163.152 60.9727 162.637 61.4258 162.02 61.7539C161.41 62.0742 160.707 62.2344 159.91 62.2344C159.137 62.2344 158.465 62.0781 157.895 61.7656C157.324 61.4531 156.844 61.0156 156.453 60.4531C156.07 59.8828 155.762 59.2227 155.527 58.4727C155.293 57.7227 155.113 56.918 154.988 56.0586V55.4141C155.113 54.4922 155.293 53.6484 155.527 52.8828C155.762 52.1094 156.07 51.4414 156.453 50.8789C156.844 50.3086 157.32 49.8672 157.883 49.5547C158.453 49.2422 159.121 49.0859 159.887 49.0859C160.691 49.0859 161.398 49.2383 162.008 49.543C162.625 49.8477 163.141 50.2852 163.555 50.8555C163.977 51.4258 164.293 52.1055 164.504 52.8945C164.723 53.6836 164.832 54.5586 164.832 55.5195ZM161.445 55.7656V55.5195C161.445 54.9805 161.398 54.4844 161.305 54.0312C161.219 53.5703 161.078 53.168 160.883 52.8242C160.695 52.4805 160.445 52.2148 160.133 52.0273C159.828 51.832 159.457 51.7344 159.02 51.7344C158.559 51.7344 158.164 51.8086 157.836 51.957C157.516 52.1055 157.254 52.3203 157.051 52.6016C156.848 52.8828 156.695 53.2188 156.594 53.6094C156.492 54 156.43 54.4414 156.406 54.9336V56.5625C156.445 57.1406 156.555 57.6602 156.734 58.1211C156.914 58.5742 157.191 58.9336 157.566 59.1992C157.941 59.4648 158.434 59.5977 159.043 59.5977C159.488 59.5977 159.863 59.5 160.168 59.3047C160.473 59.1016 160.719 58.8242 160.906 58.4727C161.102 58.1211 161.238 57.7148 161.316 57.2539C161.402 56.793 161.445 56.2969 161.445 55.7656ZM166.391 55.7891V55.543C166.391 54.6133 166.523 53.7578 166.789 52.9766C167.055 52.1875 167.441 51.5039 167.949 50.9258C168.457 50.3477 169.082 49.8984 169.824 49.5781C170.566 49.25 171.418 49.0859 172.379 49.0859C173.34 49.0859 174.195 49.25 174.945 49.5781C175.695 49.8984 176.324 50.3477 176.832 50.9258C177.348 51.5039 177.738 52.1875 178.004 52.9766C178.27 53.7578 178.402 54.6133 178.402 55.543V55.7891C178.402 56.7109 178.27 57.5664 178.004 58.3555C177.738 59.1367 177.348 59.8203 176.832 60.4062C176.324 60.9844 175.699 61.4336 174.957 61.7539C174.215 62.0742 173.363 62.2344 172.402 62.2344C171.441 62.2344 170.586 62.0742 169.836 61.7539C169.094 61.4336 168.465 60.9844 167.949 60.4062C167.441 59.8203 167.055 59.1367 166.789 58.3555C166.523 57.5664 166.391 56.7109 166.391 55.7891ZM169.766 55.543V55.7891C169.766 56.3203 169.812 56.8164 169.906 57.2773C170 57.7383 170.148 58.1445 170.352 58.4961C170.562 58.8398 170.836 59.1094 171.172 59.3047C171.508 59.5 171.918 59.5977 172.402 59.5977C172.871 59.5977 173.273 59.5 173.609 59.3047C173.945 59.1094 174.215 58.8398 174.418 58.4961C174.621 58.1445 174.77 57.7383 174.863 57.2773C174.965 56.8164 175.016 56.3203 175.016 55.7891V55.543C175.016 55.0273 174.965 54.543 174.863 54.0898C174.77 53.6289 174.617 53.2227 174.406 52.8711C174.203 52.5117 173.934 52.2305 173.598 52.0273C173.262 51.8242 172.855 51.7227 172.379 51.7227C171.902 51.7227 171.496 51.8242 171.16 52.0273C170.832 52.2305 170.562 52.5117 170.352 52.8711C170.148 53.2227 170 53.6289 169.906 54.0898C169.812 54.543 169.766 55.0273 169.766 55.543ZM183.852 52.0859V62H180.477V49.3203H183.652L183.852 52.0859ZM187.672 49.2383L187.613 52.3672C187.449 52.3438 187.25 52.3242 187.016 52.3086C186.789 52.2852 186.582 52.2734 186.395 52.2734C185.918 52.2734 185.504 52.3359 185.152 52.4609C184.809 52.5781 184.52 52.7539 184.285 52.9883C184.059 53.2227 183.887 53.5078 183.77 53.8438C183.66 54.1797 183.598 54.5625 183.582 54.9922L182.902 54.7812C182.902 53.9609 182.984 53.207 183.148 52.5195C183.312 51.8242 183.551 51.2188 183.863 50.7031C184.184 50.1875 184.574 49.7891 185.035 49.5078C185.496 49.2266 186.023 49.0859 186.617 49.0859C186.805 49.0859 186.996 49.1016 187.191 49.1328C187.387 49.1562 187.547 49.1914 187.672 49.2383ZM196.062 49.3203V51.7109H188.68V49.3203H196.062ZM190.508 46.1914H193.883V58.1797C193.883 58.5469 193.93 58.8281 194.023 59.0234C194.125 59.2188 194.273 59.3555 194.469 59.4336C194.664 59.5039 194.91 59.5391 195.207 59.5391C195.418 59.5391 195.605 59.5312 195.77 59.5156C195.941 59.4922 196.086 59.4688 196.203 59.4453L196.215 61.9297C195.926 62.0234 195.613 62.0977 195.277 62.1523C194.941 62.207 194.57 62.2344 194.164 62.2344C193.422 62.2344 192.773 62.1133 192.219 61.8711C191.672 61.6211 191.25 61.2227 190.953 60.6758C190.656 60.1289 190.508 59.4102 190.508 58.5195V46.1914Z" fill="#888888"/>
<path d="M115.994 98.708V104.641H99.5806V98.708H115.994ZM102.151 86.0078V118H94.439V86.0078H102.151ZM121.18 86.0078V118H113.489V86.0078H121.18ZM124.805 106.354V105.893C124.805 104.15 125.054 102.546 125.552 101.081C126.05 99.6016 126.783 98.3198 127.75 97.2358C128.716 96.1519 129.91 95.3096 131.331 94.709C132.752 94.0938 134.393 93.7861 136.253 93.7861C138.128 93.7861 139.776 94.0938 141.197 94.709C142.632 95.3096 143.833 96.1519 144.8 97.2358C145.767 98.3198 146.5 99.6016 146.998 101.081C147.496 102.546 147.745 104.15 147.745 105.893V106.354C147.745 108.083 147.496 109.687 146.998 111.167C146.5 112.631 145.767 113.913 144.8 115.012C143.833 116.096 142.64 116.938 141.219 117.539C139.798 118.139 138.157 118.439 136.297 118.439C134.437 118.439 132.789 118.139 131.353 117.539C129.917 116.938 128.716 116.096 127.75 115.012C126.783 113.913 126.05 112.631 125.552 111.167C125.054 109.687 124.805 108.083 124.805 106.354ZM132.21 105.893V106.354C132.21 107.248 132.276 108.083 132.408 108.859C132.54 109.636 132.759 110.317 133.067 110.903C133.375 111.474 133.792 111.921 134.319 112.243C134.847 112.565 135.506 112.727 136.297 112.727C137.073 112.727 137.718 112.565 138.23 112.243C138.758 111.921 139.175 111.474 139.483 110.903C139.791 110.317 140.01 109.636 140.142 108.859C140.274 108.083 140.34 107.248 140.34 106.354V105.893C140.34 105.029 140.274 104.216 140.142 103.454C140.01 102.678 139.791 101.997 139.483 101.411C139.175 100.81 138.758 100.341 138.23 100.004C137.703 99.6675 137.044 99.499 136.253 99.499C135.477 99.499 134.825 99.6675 134.297 100.004C133.785 100.341 133.375 100.81 133.067 101.411C132.759 101.997 132.54 102.678 132.408 103.454C132.276 104.216 132.21 105.029 132.21 105.893ZM158.27 110.925L162.664 94.2256H167.3L165.652 102.597L161.302 118H157.588L158.27 110.925ZM156.534 94.2256L159.258 110.793L159.566 118H155.062L149.437 94.2256H156.534ZM171.211 110.441L173.958 94.2256H181.055L175.474 118H170.97L171.211 110.441ZM167.828 94.2256L172.266 110.881L172.947 118H169.19L164.927 102.641L163.345 94.2256H167.828ZM209.466 86.0078V118H201.753V86.0078H209.466ZM219.09 86.0078V91.9624H192.349V86.0078H219.09ZM216.475 106.354V105.893C216.475 104.15 216.724 102.546 217.222 101.081C217.72 99.6016 218.453 98.3198 219.419 97.2358C220.386 96.1519 221.58 95.3096 223.001 94.709C224.422 94.0938 226.062 93.7861 227.923 93.7861C229.798 93.7861 231.446 94.0938 232.867 94.709C234.302 95.3096 235.503 96.1519 236.47 97.2358C237.437 98.3198 238.169 99.6016 238.667 101.081C239.166 102.546 239.415 104.15 239.415 105.893V106.354C239.415 108.083 239.166 109.687 238.667 111.167C238.169 112.631 237.437 113.913 236.47 115.012C235.503 116.096 234.31 116.938 232.889 117.539C231.468 118.139 229.827 118.439 227.967 118.439C226.106 118.439 224.458 118.139 223.023 117.539C221.587 116.938 220.386 116.096 219.419 115.012C218.453 113.913 217.72 112.631 217.222 111.167C216.724 109.687 216.475 108.083 216.475 106.354ZM223.88 105.893V106.354C223.88 107.248 223.946 108.083 224.078 108.859C224.209 109.636 224.429 110.317 224.737 110.903C225.044 111.474 225.462 111.921 225.989 112.243C226.517 112.565 227.176 112.727 227.967 112.727C228.743 112.727 229.388 112.565 229.9 112.243C230.428 111.921 230.845 111.474 231.153 110.903C231.46 110.317 231.68 109.636 231.812 108.859C231.944 108.083 232.01 107.248 232.01 106.354V105.893C232.01 105.029 231.944 104.216 231.812 103.454C231.68 102.678 231.46 101.997 231.153 101.411C230.845 100.81 230.428 100.341 229.9 100.004C229.373 99.6675 228.714 99.499 227.923 99.499C227.146 99.499 226.495 99.6675 225.967 100.004C225.455 100.341 225.044 100.81 224.737 101.411C224.429 101.997 224.209 102.678 224.078 103.454C223.946 104.216 223.88 105.029 223.88 105.893ZM254.268 86.0078H266.858C269.319 86.0078 271.458 86.374 273.274 87.1064C275.091 87.8389 276.49 88.9229 277.471 90.3584C278.467 91.7939 278.965 93.5664 278.965 95.6758C278.965 97.5068 278.68 99.0376 278.108 100.268C277.537 101.499 276.739 102.517 275.713 103.322C274.703 104.113 273.523 104.765 272.176 105.278L269.649 106.706H259.08L259.036 100.751H266.858C267.84 100.751 268.653 100.576 269.297 100.224C269.942 99.8726 270.425 99.3745 270.748 98.73C271.084 98.0708 271.253 97.2871 271.253 96.3789C271.253 95.4561 271.084 94.665 270.748 94.0059C270.411 93.3467 269.913 92.8413 269.253 92.4897C268.609 92.1382 267.811 91.9624 266.858 91.9624H261.98V118H254.268V86.0078ZM271.78 118L264.705 103.85L272.879 103.806L280.042 117.67V118H271.78ZM297.159 112.221V94.2256H304.585V118H297.642L297.159 112.221ZM297.862 107.387L299.795 107.343C299.795 108.94 299.605 110.419 299.224 111.782C298.843 113.129 298.279 114.301 297.532 115.297C296.8 116.293 295.892 117.07 294.808 117.626C293.738 118.168 292.5 118.439 291.094 118.439C289.922 118.439 288.846 118.278 287.864 117.956C286.897 117.619 286.062 117.099 285.359 116.396C284.656 115.678 284.107 114.763 283.711 113.649C283.331 112.521 283.14 111.174 283.14 109.606V94.2256H290.545V109.65C290.545 110.178 290.611 110.632 290.743 111.013C290.875 111.394 291.065 111.716 291.314 111.979C291.563 112.229 291.871 112.419 292.237 112.551C292.618 112.668 293.05 112.727 293.533 112.727C294.646 112.727 295.518 112.492 296.148 112.023C296.778 111.555 297.217 110.917 297.466 110.112C297.73 109.306 297.862 108.398 297.862 107.387ZM315.945 99.3013V118H308.541V94.2256H315.484L315.945 99.3013ZM315.066 105.3L313.331 105.344C313.331 103.527 313.55 101.909 313.99 100.488C314.429 99.0522 315.052 97.8364 315.857 96.8403C316.663 95.8442 317.623 95.0898 318.736 94.5771C319.864 94.0498 321.116 93.7861 322.493 93.7861C323.592 93.7861 324.595 93.9473 325.503 94.2695C326.426 94.5918 327.217 95.1118 327.876 95.8296C328.55 96.5474 329.063 97.4995 329.415 98.686C329.781 99.8579 329.964 101.308 329.964 103.037V118H322.515V103.015C322.515 102.062 322.383 101.337 322.12 100.839C321.856 100.327 321.475 99.9751 320.977 99.7847C320.479 99.5942 319.871 99.499 319.153 99.499C318.392 99.499 317.747 99.6455 317.22 99.9385C316.692 100.231 316.268 100.642 315.945 101.169C315.638 101.682 315.411 102.29 315.264 102.993C315.132 103.696 315.066 104.465 315.066 105.3ZM345.85 107.871H339.544C339.544 106.582 339.632 105.446 339.808 104.465C339.998 103.469 340.32 102.575 340.774 101.784C341.229 100.993 341.844 100.261 342.62 99.5869C343.309 99.0156 343.902 98.4663 344.4 97.939C344.898 97.4116 345.279 96.877 345.542 96.335C345.806 95.793 345.938 95.2144 345.938 94.5991C345.938 93.8374 345.828 93.2148 345.608 92.7314C345.403 92.248 345.088 91.8892 344.664 91.6548C344.253 91.4058 343.733 91.2812 343.104 91.2812C342.591 91.2812 342.107 91.4058 341.653 91.6548C341.214 91.9038 340.855 92.292 340.577 92.8193C340.298 93.332 340.145 94.0132 340.115 94.8628H332.667C332.71 92.6802 333.194 90.9077 334.117 89.5454C335.054 88.1685 336.299 87.165 337.852 86.5352C339.419 85.8906 341.17 85.5684 343.104 85.5684C345.242 85.5684 347.081 85.8979 348.619 86.5571C350.157 87.2163 351.336 88.1978 352.156 89.5015C352.977 90.7905 353.387 92.3799 353.387 94.2695C353.387 95.5293 353.145 96.6279 352.662 97.5654C352.193 98.4883 351.556 99.3525 350.75 100.158C349.959 100.949 349.073 101.799 348.091 102.707C347.242 103.454 346.663 104.216 346.355 104.992C346.048 105.754 345.879 106.713 345.85 107.871ZM338.643 114.55C338.643 113.496 339.024 112.617 339.786 111.914C340.547 111.196 341.536 110.837 342.752 110.837C343.968 110.837 344.957 111.196 345.718 111.914C346.48 112.617 346.861 113.496 346.861 114.55C346.861 115.605 346.48 116.491 345.718 117.209C344.957 117.912 343.968 118.264 342.752 118.264C341.536 118.264 340.547 117.912 339.786 117.209C339.024 116.491 338.643 115.605 338.643 114.55Z" fill="#424241"/>
<path d="M1363 15C1363 6.71573 1356.28 0 1348 0H1134V167H1348C1356.28 167 1363 160.284 1363 152V15Z" fill="#3C429E"/>
<path d="M1260.77 81.3079C1263.96 81.3079 1267.09 82.2553 1269.74 84.0303C1272.4 85.8053 1274.47 88.3282 1275.69 91.2799C1276.92 94.2316 1277.24 97.4796 1276.61 100.613C1275.99 103.747 1274.45 106.625 1272.19 108.884C1269.93 111.143 1267.05 112.682 1263.92 113.305C1260.79 113.928 1257.54 113.608 1254.59 112.386C1251.64 111.163 1249.11 109.093 1247.34 106.436C1245.56 103.78 1244.62 100.657 1244.62 97.4617C1244.62 93.1774 1246.32 89.0686 1249.35 86.0392C1252.38 83.0098 1256.48 81.3079 1260.77 81.3079V81.3079ZM1260.77 75.9233C1256.51 75.9233 1252.35 77.1865 1248.8 79.5532C1245.26 81.9198 1242.5 85.2837 1240.87 89.2193C1239.24 93.1549 1238.81 97.4856 1239.64 101.664C1240.48 105.842 1242.53 109.679 1245.54 112.692C1248.55 115.704 1252.39 117.755 1256.57 118.586C1260.75 119.417 1265.08 118.991 1269.01 117.361C1272.95 115.73 1276.31 112.97 1278.68 109.428C1281.04 105.886 1282.31 101.722 1282.31 97.4617C1282.31 91.7493 1280.04 86.271 1276 82.2317C1271.96 78.1925 1266.48 75.9233 1260.77 75.9233Z" fill="white"/>
<path d="M1274.23 49H1220.38C1218.96 49 1217.59 49.5673 1216.58 50.5771C1215.57 51.5869 1215 52.9565 1215 54.3846V108.231C1215 109.659 1215.57 111.028 1216.58 112.038C1217.59 113.048 1218.96 113.615 1220.38 113.615H1231.15V108.231H1220.38V70.5384H1279.62V54.3846C1279.62 52.9565 1279.05 51.5869 1278.04 50.5771C1277.03 49.5673 1275.66 49 1274.23 49V49ZM1220.38 65.1538V54.3846H1274.23V65.1538H1220.38Z" fill="white"/>
<path d="M1255.39 89.3849V105.539L1268.85 97.4618L1255.39 89.3849Z" fill="white"/>
</svg>
